<?xml version="1.0" encoding="UTF-8"?>
<svg id="Ebene_1" data-name="Ebene 1" xmlns="http://www.w3.org/2000/svg" viewBox="0 0 500 500">
  <defs>
    <style>
      .cls-1 {
        fill: #fff;
        stroke-width: 0px;
      }
    </style>
  </defs>
  <g>
    <path class="cls-1" d="M318.96,255.93c11.75,15.12,11.15,40.3-1.14,54.99-4.3,5.14-17.65,11.44-3.79,12.15,4.4.22,9.09-3.36,12.8-1.17-11.58,17.78-27.14,29.46-49.24,24.66l13.78,7.85c-8.81-2.06-18.23,1.57-24.68-5.85-5.34-6.14-1.84-11.81-2.91-18.75-3.74-24.14-1.38-43.12-3.85-65.11-.33-2.95-.41-6.08-3.99-6.82.2,5.47,1.14,13.39-5.91,9.85l-.04,11.81-3.9-9.83v13.79s3.9-2,3.9-2l1.97,41.38-3.9-3.92c-.32,9.48.37,19.08-.02,28.58-.1,2.39,1.49,7.32-1.95,6.87-2.08-26.15.38-56.07-2.01-81.73-.91-9.78-2.72-10.94-7.15-17.42-1.55-2.27-2.69-4.39-2.71-7.22-3.63.76-3.62,3.87-3.98,6.81-3.66,29.63,6.5,63.16-5.87,91.68l5.93.99c-5.4,8.42-10.77,8.11-18.16,11.02-1.68.66-1.54,3.41-2.91,3.71-4.01.89-12.1-1.83-14.37,3.04-1.64,3.53,8.91,4.92,8.05,10.64,5.37-3.11,13.96-1.06,17.53,4.09l-3.92,3.94-7.05-1.83-4.79,3.8c4.54-6.96-2.77-3.25-5.55-4.54-.86-.39.87-4.19-2.29-3.31-3.38,9.55-2.32,5.46-5.53,2.08-2-2.1-10.4-8.4-10.37-9.09.33-7.5,17.46-24.14,25.19-26.05,3.32-.82,11.74,0,12.35-.46.43-.32,1.76-4.34-2.47-3.49-4.31.87-8.76,3.98-11.3-2.39l7.87,1.94-1.95-5.89,5.89,1.95c-6.62-12.8,9.06,2.92,9.85-9.83-13.84-1.01-32.98-.04-43.88,9.74-3.61,3.24-5.6,11.68-7.51,16.28-.61,1.45-3.34,1.53-3.68,2.95-5.21,22.17,21.3,36.79,40.42,34.18,4.64-.63,7.5-4.35,11.25-3.81,6.89.99,20.19,14.17,22.12,21.43,9.73-23.78,37.64-24.23,56.15-38.42l-36.78,14.44-15.43,12.16c-.75-17.78,23.07-29.36,38.44-29.56-4.47-6.78,1.23-2.41,6.47-4.33,12.97-4.77,18.27-12.79,26.88-20.45,6.67-5.93,10.51-1.15,10.31-11.65-.01-.54,6.49-2.64,3.64-8.87,7.82,3.85,8.05,18.9,19.71,14.75-8.75-23.44-4.53-46.96-20.67-67.99-1.39-1.8-12.81-13.82-14.82-11.75ZM243.48,381.46c.99,6.67-5.13,1.51-4.92-6.35.14-5.05,2.6-10.09,4.89-14.51,1.4-2.71-.94-5.29,4.57-4.2-.04,7.37-5.51,18.51-4.55,25.06ZM338.65,283.5c-.83,11.45-1.86,25.48-10.84,33.48l-.99-3.92h-1.93c-1.43,7.56-13.55,9.49-3.95-1.07,8.62-9.49,9.23-10.84,13.56-23.87,1.02-3.08-1.71-5.62,4.15-4.61Z"/>
    <path class="cls-1" d="M176.29,165.1c1.74.03-.6-4.66,2.76-3.75-1.02,3.08,1.44,6,3.95,3.92.66-.55-1.53-4.77,1.94-3.9-.13,5.41,10.6,8.63,10.87,1.92l1.99,3.98,4.89-3.96c.5,9.15,1.92.18,3.26-.12,18.82,2.31,38.47.11,57,3.9,2.28-8.38,4.95,1.99,11.5,2.32,5.4.27,45.36-6.41,47.93-8.54,2.97-2.46,3.16-8.86-.33-11.51-5.97-4.54-35.62-7.39-44.52-6.39-3.79.43-2.59-2.67-1.94-3.27,1.55-1.43,9.14.86,11.4-9.32,5.55-24.96-24.51-44.64-42.92-24.22l13.79.04c-4.9,10.28,1.19,4.16,6.93,4.88,12.27,1.54,6.89,16.36,2.93,23.28-1.07,1.86-4.53.9-3.93,2.35,2.71,6.6,15.15-2.93,9.88,3.98-33.66,2.88-72.12-1.76-104.92,7.47-11.91,3.35-6.42,16.68,7.54,16.94ZM196.36,150.08c35.3-5.09,73.51-2.72,108.8,1.43-2.15,4.56-12.25,5.12-17,5.63-33.47,3.59-67.82,1.62-101.2-1.72-1.71-5.12,6.12-4.86,9.4-5.34Z"/>
    <path class="cls-1" d="M232.25,119.97c-1.56-11.58-12.69-12.32-5.87-25.6,3.96,1.38,4.07,13.91,5.91,15.74,5.48,5.43,1.68-9.4,2.84-11.8,4.64-9.55,17.53-3.32,18.82-3.98.52-.27-4.95-4.98.94-3.89,1.98.82,10.92,7.61,12.82,5.86,2.31-2.13-7.94-11.32-10.35-12.29-26.41-10.68-52.72,18.22-25.13,35.95Z"/>
    <path class="cls-1" d="M235.25,139.66c7.91,2.45,9.38-13.05,11.8-13.82,9.15-2.91,2.71,10.82,10.83,9.88l-4.39-25.19c-3.9-1.32-12.73-3.16-15.45.9-2.57,3.82-8.98,26.31-2.78,28.23Z"/>
    <path class="cls-1" d="M437.18,236.23c-.18,3.02,3.86,2.45,5.97,4.82,9.74,10.94-5.09,16.92-13.08,11.06-4.69-3.44,1.3-8.72-3.75-11.94-3.17,9.97-2.35-3.18-5.88-.02-4.89,4.37,2.76,6.52,4.31,8.58.95,1.26.09,3.75,1.87,5.33,5.31,4.69,18.78,4.49,22.51-1.43,1.63-2.58,2.84-15.18,1.81-16.41h-13.77Z"/>
  </g>
  <g>
    <path class="cls-1" d="M140.2,216.93c2.06,0,5.71-4.91,7.21-7.61,1.15-2.07,2.15-4.81,2.15-5.58s-.3-1.08-.8-1.08c-2.65,0-9.31,8.06-9.31,13.28,0,.49.1.99.75.99Z"/>
    <path class="cls-1" d="M168.58,217.15c.5,0,1.05-.18,1.6-.54-.1-.18-.15-.31-.15-.49,0-.81,1.2-1.94,2-1.94.15,0,.35.05.55.14,2.2-2.84,4.06-7.07,4.06-8.96,0-.99-.51-1.57-1.36-1.57-2.9,0-8.2,7.42-8.2,11.52,0,1.3.8,1.84,1.5,1.84Z"/>
    <path class="cls-1" d="M272.67,202.39c-2.3,0-11.46,12.65-11.46,12.65,0,0,1.95,1.12,3.4,1.12.55,0,1.15-.18,1.75-.49-.15-.14-.2-.23-.2-.36,0-1.13,1.16-2.25,2.21-2.25.15,0,.4.09.65.22,2.55-3.06,4.55-7.78,4.55-10.08,0-.49-.45-.81-.9-.81Z"/>
    <path class="cls-1" d="M325.72,203.79c-2.9,0-8.21,7.42-8.21,11.52,0,1.31.8,1.85,1.5,1.85.5,0,1.05-.18,1.6-.54-.1-.18-.15-.31-.15-.5,0-.81,1.2-1.93,2-1.93.15,0,.35.04.55.13,2.2-2.83,4.05-7.06,4.05-8.95,0-.99-.5-1.58-1.35-1.58Z"/>
    <path class="cls-1" d="M457.84,200.76c-7.91-3.07-2.72,8.47-7.83,5.87-6.77-3.44-5-22.9-23.87-23.55-18.8-.65-15.06,19.57-19.86,23.7-3.67,3.16-10.85,2.86-14.9,4.31-3.8,1.36-4.58,5.52-10.33,5.6-10.11.16-5.67-9.04-7.79-16.07-3.28-10.9-29.33-17.63-39.53-17.77-8.47-.12-16.94,3.52-25.53,4.17-15.61,1.17-30.85-2.2-46.36-2.02l15.75,3.92h-35.46c.87-4.77,14.88-3.13,15.75-3.96l-.97-17.73-6.89,6.92,3.8,1.82c-2.44,10.57-3.49,4.72-5.36,5.66-.39.2-2.27,7.11-6.31,2.09l-2.01-14.49-2.93,5.92-4.91-5.93c.65,4.48.52,28.91-5.95,23.62,5.21-7.28-4.19-1.65-10.8-1.75-9.19-.15-18.83-3.84-28.58-2.19,2.57-4.53,12.08-.78,16.44-1.92,1.49-.39,1.13-6.78,5.23-3.95.28.19-2.82,4.58,1.14,5.73,12.17,3.54,20.24-18.33,18.55-19.52-2.46-1.74-10.98,11.29-16.84,9.75l5.02-3.88c-5.7-11.46-12.69,8.05-17.06,9.55-14.89,5.1-53.26-9.88-65.73,5.73-2.62,3.29-8.39,21.67-10.73,21.91-3.64.37-14.45-7.74-23.33-5.62-1.49.35-1.21,3.52-2.71,3.88-3.67.87-8.51-.39-12.43.02-.49-3.83,4.01-.43,6.18-3.16,1.67-2.09,1.72-11.15-.27-13.51-10.28-12.11-25.87,1.08-32.28-1.18-4.69-1.65-.15-10.83-9.85-7.52-4.88,1.67-4.31,10.31.01,11.42,2.27.58,5.29-1.58,7.61-1.41,3.8.27,7.59,2.4,11.49,1.61.82-.16,2.86-7,9.2-3.96l-3.92,3.9c22.76.38,2.98,4.53.93,7.87-2.8,4.55,1.36,15.32,4.79,18.46,2.65,2.42,6.49-.34,6.08,3.23-6.97,3.09-8.3-3.93-8.86-3.94-2.1-.06-.36,3.39-.99,3.95-3.61,3.21-3.63-3-5.38-3.84-22.01-10.6-39.63,14.02-20.16,26.45,3.14,2,19.51,6.38,21.56,4.96,1.5-1.04,3.23-12.97-6.43-9.45-3.99,1.45-3.72,5.93-9.29,4.74-6.27-1.34-13.07-7.91-8.08-14.11,4.8-5.97,14.79.3,21.88,1.13-6.64-3.76-10.33-7.85-19.7-5.93.54-5.57,13.35-7.84,15.64-5.68.83.78-.4,4.91.13,5.72.87,1.32,28.17-4.95,31.5-1.98,1.36,1.22-1.29,4.75-2.87,5.96-6.11,4.65-17.45,2.75-24.7,1.91,16.43,9.31,20.75,2.36,35.56,6.8,6.22,1.86,13.28,10.82,21.03,12.45,13.39,2.81,27.89-4.58,41.92.47l-10.71,11.94c-12.99,17.73-11.31,38.91-16.55,58.33-.78,2.88-5.82,10.77-4.26,12.45,2.75,2.94,18.44-14.16,21.64-15.75-.6,7.09,6.66,26.94,12.85,29.53,7.46,3.12-1.85-10.79-.99-11.8,14.79,9.57.54-4.99-1.11-9.74-6.7-19.26,9.31-.86,18.82-8.97-21.66-8.74-28.38-45.89-17.83-64.72,1.31-2.34,5.56-1.08,7.84-2.35,9.83-5.45,4.01-14.55,6.31-18.38,1.77-2.95,25.37-2.83,29.86-1.82,5.16,1.16,27.91,16.96,32.92,13.36l-1.99-5.88c-3.44-1.01-.94,4.73-2.92,3.92-.78-.32-6.98-4.19-6.89-5.88l13.75-2.01,4.96,11.83-.99-9.83,4.92,5.92,4.91-5.93c-2.66,10.39,9.41,5.31,9.86,5.91,4.17,5.55-3.25,17.37-8.86,3.95l-2.75,5.63c22.32,12.31,37.19,39.93,14.17,59.52-1.52,1.3-11.21,1.97-5.34,5.88,1.51,1.01,6.78,1.05,6.75,2.83-.05,2.76-8.35-1.4-7.89,2.94l9.83.04c-.07,3.81-10.93,1.57-6.9,7.85,7.06-2.75,23.64-11.96,26.6-18.73,2.86-6.55-17.67,3.58-17.7-2.91l16.75-7.89c2.22-5.08-8.43-1.03-8.89-2.98-1.13-4.77,11.98-7.23,13.81-4.89.95,1.21-5.23,11.27-.03,11.8,13.41-36.92-12.29-53.52-38.81-70.43-1.41-.9-5.89-1.72-2.53-4.41,2.65-2.12,35.32,2.15,42.44,2.05,3.48-.05,15.85-2.81,16.64-2.05,2.34,2.23-10.43,15.18,8.98,21.54,10.64,3.48,13.01-.14,21.49.03,15.77.32,31.38,4.08,46.37.06.56-3.81-4.19-1.14-5.89-1.97-2.35-1.14,3.17-1.91,3.85-3.38,1.21-2.6,6.36-25.08,5.93-26.77-.21-.83-7.18-3.88-3.86-11.2l3.9,5.88c-.08-6.72,9.7-6.24,12.76-9.9,3.81-4.56,1.28-17.14,7.98-19.61,3.7-1.37,2.68,4.02,4.01,4.03,1.69.02,4.13-2.04,6.08-2.01,10.55.13,9.98,12.91,17.89,17.22,12.72,6.93,15.84-4.92,9.4-7.42ZM167.12,303.27c.81.62,6.49,15.41,9.98,17.64l-15.8-7.11c-7.19-10.39-7.04-22.89-3.3-34.65.66-2.07.48-5.96,3.32-5.49l-1.93,27.56,3.9-3.92.04,7.88c.17.25,3.52-2.12,3.79-1.91ZM145.31,199.74c3.7,0,6.05,1.48,6.15,3.69.25-.59,5.86-11.88,7.26-11.88,1.85,0,3.75,1.3,3.75,2.07s-.7,1.17-1.95,3.28c-1.45,2.43-7.51,13.86-7.51,18.41,0,1.39.46,1.8,1.16,1.8,1.6,0,5.25-4.1,7.3-6.66.85-1.08,1.1-1.44,1.35-1.44.03,0,.07.01.11.02,2.1-4.36,6.3-9.11,9.4-9.11,1.55,0,4.91,1.48,5.61,2.56.35,0,2.45.5,2.45,3.56,0,2.29-1.55,6.12-4.01,9.22,3.31-.4,5.26-2.47,7.11-4.81.85-1.08,1.1-1.44,1.35-1.44.02,0,.04,0,.07.01,1.58-4.16,4.33-8.83,5.94-8.83,1.1,0,3.8,1.35,3.8,2.34s-1.95,2.47-4.45,7.51c-2.3,4.64-2.3,5.45-2.3,6.08,0,.49.4.85.9.85,1.1,0,3.95-2.92,7.3-7.56,3.36-4.63,4.86-8.68,5.91-8.68s4.05,1.03,4.05,2.02-4.2,5.31-4.2,11.3c0,2.07.8,2.88,1.45,2.88.7,0,1.4-.36,2.15-1.04-.25-.18-.35-.4-.35-.58,0-1.13,1.15-2.25,2.2-2.25.1,0,.2.04.3.09,2.1-3.42,3.71-8.37,3.71-11.25,0-1.98.3-2.66.75-2.66,1.45,0,3.35,2.34,3.35,5.63s-1.9,7.06-4.41,9.99c3.96,0,5.91-1.85,7.96-4.41.85-1.08,1.1-1.44,1.35-1.44.04,0,.08.01.13.03,1.69-3.87,3.76-7.76,3.93-8.63.05-.31.25-.36.85-.36,1.8,0,4.15,1.13,4.15,2.39s-4.8,8.55-4.8,10.35c0,0,3.2-3.92,6.4-7.2,3.21-3.29,5.96-5.36,7.66-5.36,2.6,0,5.1,1.58,5.1,3.06,0,2.07-6.05,9.72-6.05,12.92,0,1.44.6,1.89.6,2.43s-.65,1.03-1.2,1.03c-2.1,0-4.96-1.48-4.96-4.23,0-3.51,6.06-10.48,6.06-11.7,0-.36-.4-.58-.7-.58-.6,0-2.8,1.66-5.21,4.27-1.5,1.62-3.1,3.78-4.65,5.72-4.05,5.08-3.6,6.48-4.5,6.48-1.5,0-4.91-1.31-4.91-3.47,0-.32.04-.69.12-1.1-1.79,1.39-4.26,2.36-7.93,2.36-.65,0-1.25-.04-1.85-.18-1.7,1.35-3.5,2.21-5.1,2.21-4.61,0-5.71-3.29-6.51-5.63,0,0-3.95,5.99-8.15,5.99-2.33,0-4.93-1.94-5.09-5.49-2.01,1.94-5.2,3.78-9.53,3.78h-.65c-1.6,1.17-3.4,1.98-5.25,1.98-3.13,0-6.12-2.5-6.58-5.59-1.96,2.35-4.74,5.5-7.53,5.5-1.66,0-2.41-.68-2.41-.68-1.95,0-4.35-2.25-4.35-5.76-1.25,2.48-4.4,6.12-7.41,6.12s-5.85-1.3-5.85-5.62c0-5.31,7.76-14.31,11.16-14.31ZM169.21,249.99c-1.06.85-23.75-.38-27.2-.54-3.16-.15-5.7,1.61-8.24-2.41l37.41-4.9-5.89,1.97c-1.18,2.47,8.4,2.27,3.92,5.88ZM215.5,232.29c-14.11-.99-29.24,1.05-43.29-.05-6.63-.52-15.69-2.68-22.69-3.91.24.05,1.49,1.87,4.13,2.66,2.62.79,9.28.99,9.66,1.3,3.95,3.16-18.64,14.35-17.76,3.94-3.22-.88-1.14,2.42-2.3,3.42-1.79,1.54-6.83.13-9.48.49l10.31-11.29c1.48-.85,3.84-.88,5.44-.52-.18-.03-.09-1.63-2.93-2.06-4.54-.69-10.07.62-14.79.07,1.18-3.52,11.88-2.26,14.75-1.93,9.05,1.04,18.39,5.03,27.63,5.86,13.91,1.26,29.2-.91,43.28.06l26.62,5.86c-10.07,2.21-19.38-3.26-28.58-3.9ZM349.2,241.81c-3.45.65-10.42-7.21-16.44-1.67l-.98-5.92c-9.78,16.81-17.68,1.66-3.54-1.52,3.21-.72,24.8-.21,26.16,1.54,1.48,1.91-2.99,7.15-5.2,7.56ZM353.89,219.45c-4.6,0-5.7-3.29-6.51-5.62,0,0-3.95,5.98-8.16,5.98-2.32,0-4.92-1.94-5.09-5.49-2.01,1.95-5.2,3.78-9.53,3.78h-.65c-1.6,1.17-3.4,1.98-5.25,1.98-3.13,0-6.13-2.52-6.59-5.63-1.97,2.23-4.76,5-7.17,5-3,0-4.73-2.16-4.83-4.78,0,0,0,.01-.01.02-2.21,2.24-5.73,4.99-9.96,4.99-3.2,0-7.03-2.2-7.85-5.93-1.99,2.05-5.59,3.68-10.32,3.68h-.25c-1.75,1.26-3.6,2.03-5.25,2.03-3.41,0-6.26-2.34-6.26-2.34,0,0-.9,2.16-1.85,2.16-1.25,0-3.25-1.04-3.25-2.93s1.8-8.68,4.25-13.95c2.45-5.26,5.5-11.52,6.5-11.52,1.41,0,3.71,1.62,3.71,2.25s-3.36,4.95-5.81,10.58c-2.39,5.52-2.98,7.37-3.04,7.58,2.32-2.54,7.71-11.05,12.1-11.05,4.05,0,6.06,2.7,6.06,5.31,0,3.02-1.76,6.44-4.16,9.14,2.9-.54,5.16-2.16,6.81-4.23.85-1.08,1.1-1.44,1.35-1.44h.01c1.77-4.17,6.21-8.6,9.05-8.6,2.4,0,6.15,1.98,6.15,3.92,0,1.48-1.5,4.45-4.15,6.75-2.1,1.84-6.41,1.93-6.41,1.93,0,0-.1.5-.1,1.04,0,1.8,1.56,3.06,3.31,3.06,3.4,0,7.35-4.1,9.41-6.66.85-1.08,1.1-1.44,1.35-1.44.02,0,.03,0,.04,0,2.71-7.06,8.26-17.37,8.26-18.19,0-.27.25-.32.55-.32,1.05,0,3.65,1.94,3.65,2.79s-2.65,5.85-5.45,11.29c-2.8,5.44-3.8,9-3.8,11.2,0,.5.35.95.85.95.95,0,4.25-3.73,6.31-6.3.85-1.08,1.1-1.44,1.35-1.44.04,0,.08.02.12.03,2.1-4.37,6.28-9.12,9.39-9.12,1.55,0,4.9,1.48,5.6,2.56.35,0,2.45.5,2.45,3.55,0,2.29-1.55,6.12-4,9.22,3.3-.4,5.25-2.47,7.11-4.81.85-1.08,1.1-1.44,1.35-1.44.02,0,.04.01.06.02,1.58-4.16,4.34-8.84,5.95-8.84,1.1,0,3.8,1.35,3.8,2.34s-2.2,2.48-4.45,7.51c-2.05,4.63-2.2,5.67-2.2,6.17s.25.76.8.76c1.1,0,3.95-2.92,7.31-7.56s4.85-8.68,5.9-8.68,4.05,1.03,4.05,2.02-4.2,5.31-4.2,11.29c0,2.07.8,2.88,1.45,2.88,3.65,0,8.01-10.3,8.01-15.03,0-1.98.3-2.65.75-2.65,1.45,0,3.35,2.34,3.35,5.62,0,6.07-6.81,14.58-11.96,14.58Z"/>
    <path class="cls-1" d="M294.69,204.73c0-.27-.25-.45-.65-.45-1.15,0-6.01,5.45-6.01,6.62,1.96,0,6.66-4.73,6.66-6.17Z"/>
  </g>
</svg>