<?xml version="1.0" encoding="UTF-8"?>
<svg id="Ebene_1" data-name="Ebene 1" xmlns="http://www.w3.org/2000/svg" viewBox="0 0 500 500">
  <defs>
    <style>
      .cls-1 {
        fill: #fff;
      }

      .cls-2 {
        fill: #e5ebeb;
      }

      .cls-3 {
        fill: #e9e8e6;
      }

      .cls-4 {
        fill: #edefd3;
      }

      .cls-5 {
        fill: #fbee74;
      }

      .cls-6 {
        fill: #949ba4;
      }

      .cls-7 {
        fill: #c5cbd6;
      }
    </style>
  </defs>
  <g>
    <g>
      <polygon class="cls-2" points="349.6 503.28 218.49 503.28 222.16 374.31 337.34 374.31 349.6 503.28"/>
      <polygon class="cls-2" points="337 370.75 222.27 370.75 223.51 327.61 332.9 327.61 337 370.75"/>
      <polygon class="cls-3" points="337.34 374.31 162.59 374.31 162.93 370.75 337 370.75 337.34 374.31"/>
    </g>
    <rect class="cls-6" x="162.52" y="370.75" width="176.02" height="3.56"/>
    <g>
      <polygon class="cls-2" points="222.16 374.31 218.49 503.28 150.33 503.28 162.59 374.31 222.16 374.31"/>
      <polygon class="cls-2" points="223.51 327.61 222.27 370.75 162.93 370.75 167.03 327.61 223.51 327.61"/>
      <polygon class="cls-2" points="222.27 370.75 222.16 374.31 162.59 374.31 162.93 370.75 222.27 370.75"/>
    </g>
  </g>
  <polygon class="cls-5" points="499.21 185.67 313.85 153.67 314 95.95 499.21 59.08 499.21 185.67"/>
  <path class="cls-1" d="M166.1,347.66c-5.25-26.16-35.49-43.81-35.79-43.98l5.15-7.3c1.36.78,33.32,19.35,39.38,49.52l-8.74,1.76Z"/>
  <path class="cls-1" d="M334.12,349.32l-8.74-1.76c6.06-30.17,38.02-48.74,39.38-49.52l6.43,7.11c-.3.17-31.82,18.01-37.07,44.17Z"/>
  <polygon class="cls-2" points="167.97 329.1 169.41 302.4 332.61 302.4 334.04 329.1 167.97 329.1"/>
  <polygon class="cls-5" points=".53 62.23 185.04 94.23 185.15 151.9 .53 188.82 .53 62.23"/>
  <rect class="cls-7" x="185.15" y="76.85" width="128.84" height="91.13"/>
  <path class="cls-4" d="M252.14,174.42h-5.13c-13.94,0-25.35-11.41-25.35-25.35v-19.54c0-13.94,11.41-25.35,25.35-25.35h5.13c13.94,0,25.35,11.41,25.35,25.35v19.54c0,13.94-11.41,25.35-25.35,25.35Z"/>
  <rect class="cls-2" x="193.07" y="77.47" width="4.2" height="89.9"/>
  <rect class="cls-2" x="210.25" y="77.47" width="4.2" height="89.9"/>
  <rect class="cls-2" x="233.87" y="77.47" width="4.2" height="89.9"/>
  <rect class="cls-2" x="300.44" y="77.47" width="4.2" height="89.9"/>
  <rect class="cls-2" x="283.26" y="77.47" width="4.2" height="89.9"/>
  <rect class="cls-2" x="259.64" y="77.47" width="4.2" height="89.9"/>
  <rect class="cls-2" x="178.47" y="176.57" width="141.25" height="79.22"/>
  <rect class="cls-7" x="202.09" y="185.88" width="58.93" height="68"/>
  <rect class="cls-2" x="213.79" y="179.85" width="13.06" height="74.02"/>
  <rect class="cls-1" x="180.68" y="324.21" width="48.44" height="4.62" transform="translate(-133.14 511.8) rotate(-86.62)"/>
  <rect class="cls-1" x="249.77" y="302.4" width="4.62" height="48.35"/>
  <rect class="cls-1" x="296.33" y="302.46" width="4.62" height="48.44" transform="translate(-18.78 18.22) rotate(-3.39)"/>
  <path class="cls-1" d="M423.77,253.92H68.36v-41.81h355.4v41.81ZM75.27,249.3h341.58v-32.58H75.27v32.58Z"/>
  <path class="cls-1" d="M322.59,177.53h-150.79c-4.22,0-7.63-3.42-7.63-7.63h0c0-4.22,3.42-7.63,7.63-7.63h150.79c4.22,0,7.63,3.42,7.63,7.63h0c0,4.22-3.42,7.63-7.64,7.63Z"/>
  <path class="cls-1" d="M332.06,364.02h-163.81c-4.58,0-8.29-3.71-8.29-8.29h0c0-4.58,3.71-8.3,8.29-8.3h163.81c4.58,0,8.29,3.71,8.29,8.29h0c0,4.58-3.71,8.3-8.29,8.3Z"/>
  <g>
    <rect class="cls-1" x="95.94" y="214.42" width="6.7" height="38.12"/>
    <rect class="cls-1" x="128.55" y="214.42" width="6.7" height="38.12"/>
    <rect class="cls-1" x="161.17" y="214.42" width="6.7" height="38.12"/>
    <rect class="cls-1" x="193.79" y="214.42" width="6.7" height="38.12"/>
    <rect class="cls-1" x="226.41" y="214.42" width="6.7" height="38.12"/>
    <rect class="cls-1" x="259.02" y="214.42" width="6.7" height="38.12"/>
    <rect class="cls-1" x="291.64" y="214.42" width="6.7" height="38.12"/>
    <rect class="cls-1" x="324.26" y="214.42" width="6.7" height="38.12"/>
    <rect class="cls-1" x="356.88" y="214.42" width="6.7" height="38.12"/>
    <rect class="cls-1" x="389.49" y="214.42" width="6.7" height="38.12"/>
  </g>
  <path class="cls-1" d="M328.02,165.24h-161.9v-48.43h161.9v48.43ZM170.24,161.07h153.66v-40.09h-153.66v40.09Z"/>
  <g>
    <rect class="cls-1" x="175.14" y="118.89" width="4.17" height="45.36"/>
    <rect class="cls-1" x="192.47" y="118.89" width="4.17" height="45.36"/>
    <rect class="cls-1" x="209.8" y="118.89" width="4.17" height="45.36"/>
    <rect class="cls-1" x="227.13" y="118.89" width="4.17" height="45.36"/>
    <rect class="cls-1" x="244.47" y="118.89" width="4.17" height="45.36"/>
    <rect class="cls-1" x="261.8" y="118.89" width="4.17" height="45.36"/>
    <rect class="cls-1" x="279.13" y="118.89" width="4.17" height="45.36"/>
    <rect class="cls-1" x="296.46" y="118.89" width="4.17" height="45.36"/>
    <rect class="cls-1" x="313.79" y="118.89" width="4.17" height="45.36"/>
  </g>
  <g>
    <path class="cls-1" d="M270.09,51.62l-3.05-5.59c-1.65-3.03-4.83-4.91-8.28-4.91h-1.08v-9.07h-.23c3.3-2.34,5.48-6.17,5.48-10.5v-5.73c0-7.09-5.8-12.88-12.88-12.88s-12.88,5.8-12.88,12.88v5.73c0,4.33,2.18,8.16,5.48,10.5h-.23v9.07h-1.56c-3.7,0-7.05,2.16-8.58,5.53l-2.26,4.97c-35.31,9.54-55.36,37.22-55.36,37.22h150.79s-20.04-27.68-55.35-37.22Z"/>
    <path class="cls-1" d="M237.17,15.83v5.73c0,4.33,2.18,8.16,5.48,10.5h-.23v9.07h-1.56c-3.7,0-7.05,2.16-8.58,5.53l-2.26,4.97c-35.31,9.54-55.36,37.22-55.36,37.22h29.91c2.84-6.34,13.84-27.18,38.8-34.83,0,0-.95-10.98,6.68-10.98v-10.02s-4.77-1.43-4.77-13.84,7.63-15.75,7.63-15.75l-1.01-.29c-.61-.09-1.22-.19-1.85-.19-7.09,0-12.88,5.8-12.88,12.88Z"/>
  </g>
  <path class="cls-1" d="M322.44,90.87h-144.89c-1.77,0-3.2-1.43-3.2-3.2h0c0-1.77,1.44-3.2,3.2-3.2h144.89c1.77,0,3.2,1.43,3.2,3.2h0c0,1.77-1.43,3.2-3.2,3.2Z"/>
  <g>
    <path class="cls-1" d="M160.77,274.37c-3.19,0-9.02,9.07-9.02,14.08,0,1.59.88,2.25,1.65,2.25.55,0,1.15-.22,1.76-.66-.11-.22-.17-.38-.17-.6,0-.99,1.32-2.37,2.2-2.37.17,0,.39.06.6.17,2.42-3.46,4.45-8.63,4.45-10.94,0-1.21-.55-1.92-1.48-1.92Z"/>
    <path class="cls-1" d="M285.45,274.26c-2.58,0-10.01,10.34-10.01,14.9,0,.83.71,1.27,1.48,1.27,1.27,0,6-5.12,8.03-8.69-.17-.27-.33-.44-.33-.83,0-.93,2.2-2.75,2.2-5.33,0-.83-.66-1.32-1.38-1.32Z"/>
    <path class="cls-1" d="M224.62,275.53c0-.33-.27-.55-.71-.55-1.27,0-6.6,6.65-6.6,8.08,2.14,0,7.31-4.4,7.31-7.53Z"/>
    <path class="cls-1" d="M339.02,272.67c-2.53,0-12.59,15.45-12.59,15.45,0,0,2.14,1.38,3.74,1.38.61,0,1.27-.22,1.92-.6-.17-.17-.22-.28-.22-.44,0-1.38,1.26-2.75,2.42-2.75.17,0,.44.11.71.27,2.8-3.74,5-9.51,5-12.32,0-.6-.5-.99-.99-.99Z"/>
    <path class="cls-1" d="M68.36,252.92v52h355.4v-52H68.36ZM220.28,290.65c2.69,0,4.01-1.38,4.73-1.38.55,0,1.21.66,1.21,1.38s-2.75,2.91-6.54,2.91c-4.15,0-7.83-2.45-8.67-6.87-2.25,2.89-6.15,7.42-9.65,7.42s-6.43-2.75-6.43-5.77c0-4.12,6.54-12.59,6.54-14.08,0-.39-.16-.55-.55-.55-.93,0-4.62,2.75-8.19,7.59-3.57,4.84-6.05,9.46-6.05,11.16,0,.77-.55,1.1-1.1,1.1-1.15,0-3.9-1.81-3.9-3.52,0-3.96,6.71-12.54,6.71-15.78,0-.44-.17-.66-.55-.66-1.76,0-6.54,5.06-9.68,9.51-3.13,4.45-3.96,8.08-3.96,9.02s-.44,1.54-.99,1.54c-1.43,0-4.23-1.32-4.23-4.12,0-.44.04-.9.09-1.36-2.21,1.99-5.39,3.67-9.5,3.67h-.71c-1.76,1.43-3.74,2.42-5.77,2.42-3.44,0-6.74-3.08-7.24-6.87-2.16,2.73-5.26,6.16-8.33,6.16-2.58,0-6.76-1.92-6.76-5.83s5.83-11.33,5.83-13.03c0-.6-.33-.88-.72-.88-1.1,0-7.42,6.93-11.16,12.26-3.74,5.33-3.9,7.86-5,7.86s-3.96-1.87-3.96-3.36.44-3.52,3.3-11.05c3.46-9.07,8.91-19.14,8.91-20.24,0-.39.06-.66.6-.66s4.18,1.71,4.18,3.41-1.65,3.74-4.4,9.4c-2.86,5.88-5.11,11.71-5.11,11.71,0,0,9.68-12.98,14.19-12.98,3.3,0,5.39,2.64,5.39,4.73,0,3.46-6.49,11.82-6.49,14.52,0,.6.6,1.21,1.26,1.21,1.76,0,5.77-5,8.03-8.14.94-1.32,1.21-1.76,1.48-1.76.04,0,.08.02.12.04,2.31-5.34,6.92-11.15,10.33-11.15,1.71,0,5.39,1.82,6.16,3.13.38,0,2.69.61,2.69,4.34,0,2.8-1.71,7.48-4.4,11.27,3.63-.5,5.77-3.02,7.81-5.88.93-1.32,1.21-1.76,1.48-1.76.07,0,.15.04.24.1.3-.61.62-1.25.97-1.92,2.86-5.44,3.68-7.64,3.85-8.25.22-.71.44-1.32.94-1.32.82,0,4.29,1.92,4.29,3.19,0,1.16-1.48,3.85-1.81,4.4.38-.5,5.22-6.43,9.4-6.43,2.64,0,4.18,2.31,4.18,3.3s-.22,2.25-.22,2.25c0,0,5.72-5.88,9.29-5.88,2.47,0,4.95,2.86,4.95,4.73,0,2.86-6.54,10.5-6.54,14.63,0,.6.38,1.1,1.38,1.1,1.76,0,5.77-5,8.03-8.14.9-1.28,1.19-1.73,1.46-1.75,1.94-5.09,6.81-10.51,9.93-10.51,2.64,0,6.76,2.42,6.76,4.78,0,1.81-1.1,5.55-4.01,8.36-2.31,2.25-7.59,2.25-7.59,2.25,0,0-.11.61-.11,1.27,0,2.2,1.71,3.74,3.63,3.74ZM386.92,291.64c0,.61-.66,1.32-.99,1.32-2.47,0-5-1.98-5-5.83s3.08-8.14,3.08-9.62-1.87-2.47-1.87-2.47c0,0-1.54,3.41-5.66,9.4-.71,1.04-1.26,1.76-1.87,1.76-.13,0-.27-.06-.41-.15-2.07,2.76-5.92,5.82-11.47,5.82h-.71c-1.76,1.43-3.74,2.42-5.77,2.42-3.51,0-6.88-3.21-7.27-7.11-2.27,2.19-5.96,3.86-10.71,3.86h-.27c-1.92,1.54-3.96,2.47-5.77,2.47-3.74,0-6.87-2.86-6.87-2.86,0,0-.99,2.64-2.04,2.64-1.38,0-3.57-1.26-3.57-3.58,0-.39.06-.97.17-1.67-2.12,2.6-4.98,5.52-7.82,5.52-2.47,0-6.16-2.58-6.16-6.43s3.08-8.14,3.08-9.62-1.87-2.47-1.87-2.47c0,0-1.54,3.41-5.67,9.4-.71,1.04-1.26,1.76-1.87,1.76-.12,0-.24-.06-.37-.13-2.11,2.77-5.54,7.23-8.92,7.23-2.42,0-4.56-1.32-5.5-2.86-.33-.61-.38-1.65-.38-2.37v-.71s-4.12,6.27-7.59,6.27c-3.08,0-5.97-3-6.5-5.9-2.14,2.67-5.13,5.84-8.07,5.84-2.58,0-6.76-1.92-6.76-5.83s5.83-11.33,5.83-13.03c0-.6-.33-.88-.71-.88-1.1,0-7.42,6.93-11.16,12.26-3.74,5.33-3.9,7.86-5,7.86s-3.96-1.87-3.96-3.36.44-3.52,3.3-11.05c3.46-9.07,8.91-19.14,8.91-20.24,0-.39.05-.66.6-.66s4.18,1.71,4.18,3.41-1.65,3.74-4.4,9.4c-2.86,5.88-5.11,11.71-5.11,11.71,0,0,9.68-12.98,14.19-12.98,3.3,0,5.39,2.64,5.39,4.73,0,3.46-6.49,11.82-6.49,14.52,0,.6.61,1.21,1.27,1.21,1.76,0,5.77-5,8.03-8.14.94-1.32,1.21-1.76,1.49-1.76.07,0,.14.04.23.09,2.81-5.44,8.29-11.26,12.26-11.26,2.53,0,5.33,2.42,5.33,4.23,0,0,.82-.55,1.26-.55,1.15,0,3.9,1.81,3.9,2.58s-3.35,4.84-4.67,8.91c-.71,2.2-.88,3.41-.88,3.96,0,.88.83,1.38,1.54,1.38,1.16,0,4.89-4.46,7.15-7.59.93-1.32,1.21-1.76,1.48-1.76.14,0,.32.14.51.34,3.28-5.24,4.78-7.78,4.78-8.54,0-.33-1.49-2.04-1.49-3.68s2.92-7.92,4.29-7.92,4.67,1.48,4.67,3.08-3.08,7.15-3.08,8.96,5.22,2.53,5.22,7.09c0,1.98-3.19,6.71-3.19,9.24,0,.83.5,1.32.99,1.32,1.76,0,5.77-5,8.03-8.14.88-1.24,1.17-1.7,1.43-1.75.77-2.66,1.73-5.53,2.8-8.09,2.69-6.43,6.05-14.08,7.15-14.08,1.54,0,4.07,1.98,4.07,2.75s-3.68,6.05-6.38,12.92c-2.8,7.2-3.35,9.29-3.35,9.29,2.53-3.08,8.47-13.53,13.31-13.53,4.45,0,6.65,3.3,6.65,6.49,0,3.68-1.92,7.86-4.56,11.16,3.19-.66,5.67-2.64,7.48-5.17.93-1.32,1.21-1.76,1.48-1.76.04,0,.08.02.12.04,2.31-5.34,6.92-11.15,10.33-11.15,1.7,0,5.39,1.82,6.16,3.13.38,0,2.69.61,2.69,4.34,0,2.8-1.71,7.48-4.4,11.27,3.63-.5,5.77-3.02,7.81-5.88.94-1.32,1.21-1.76,1.49-1.76.14,0,.32.14.51.34,3.28-5.24,4.78-7.78,4.78-8.54,0-.33-1.48-2.04-1.48-3.68s2.92-7.92,4.29-7.92,4.67,1.48,4.67,3.08-3.08,7.15-3.08,8.96,5.22,2.53,5.22,7.09c0,1.98-3.19,6.71-3.19,9.24,0,1.32.77,1.71.77,2.31Z"/>
    <path class="cls-1" d="M363.93,274.37c-3.19,0-9.02,9.07-9.02,14.08,0,1.59.88,2.25,1.65,2.25.55,0,1.16-.22,1.76-.66-.11-.22-.17-.38-.17-.6,0-.99,1.32-2.37,2.2-2.37.17,0,.38.06.6.17,2.42-3.46,4.46-8.63,4.46-10.94,0-1.21-.55-1.92-1.49-1.92Z"/>
  </g>
</svg>