<?xml version="1.0" encoding="UTF-8"?>
<svg id="Ebene_1" data-name="Ebene 1" xmlns="http://www.w3.org/2000/svg" viewBox="0 0 1920 1080">
  <g>
    <path d="M1351,633l16.47-11.03c10.05-8.96,16.22-20.05,14.54-33.97l15.98,17c.13-1.31-1.33-2.73-.57-3.99.75-1.24,20.29-12.77,24.04-16.04,6.53-5.7,13.44-15.21,12.47-24.36-.95-8.97-12.24-17.18-11.97-28.07.25-9.95,9.49-16.29,8.03-26.54l-27.98,24.99c2.42-11,10.11-20,11.03-31.46,1.09-13.65-5.21-23.73-8.04-36.54l-11.99,2c.35-11.35-.22-26.08-8.97-34.54-2.97-2.87-9.81-4.91-11.49-7.51-1.8-2.8-2.09-9.34-3.68-13.32-.93-2.32-11.29-20.11-12.38-20.63-1.93-.26-2.62,3.18-3.34,4.64-2.2,4.48-3.79,9.48-6.06,13.93-.53,1.05.52,1.89-2.07,1.42-6.44-16.26-18.32-30.71-31-42.51-3.24-3.01-19.82-17.41-22.53-18.47-1.87-.73-1.28.68-1.51,1.44-2.62,8.62-2.27,18.78-4.46,27.54-6.52-13.38-12.75-26.72-27.52-32.48-3.13-1.22-9.56-1.97-11.55-3.45-1.45-1.09-3.98-6.77-5.93-9.07-4.34-5.1-11.24-9.18-16.02-13.98-2.13-.35-1.17.36-1.58,1.37-3.02,7.48-3.87,15.99-6.4,23.61-17.86-24.16-26.05-50.06-59.26-55.74-16.64-2.85-38.19-6.21-54.87-8.13-9.05-1.04-26.32-3.15-24.37,10.88-20.1.67-40.91-1.73-60.52,1.98l-3.15,6.85c-12.82,1.79-25.82,2.96-38.52,5.48-58.09,11.52-101.34,50.71-142.44,90.55-3.67,2.49-6.02.63-8.34-2.36,21.59-18.05,41.63-38.02,64.65-54.31,30.7-21.73,62.75-36.78,99.5-45.5,63.69-15.11,152.7-38.91,208.29,6.35,2.07,1.68,5.89,6.7,7.55,7.45,3.16,1.44,15.03,1.13,21.52,3.48,19.35,7.02,38.4,35.27,55.97,37.03,10.84,1.08,16.02-3.23,27.19,2.81,7.54,4.08,11.23,12.71,17.82,18.18,6.79,5.63,16.2,9.35,23.39,14.61,24.05,17.59,42.36,50.33,63.12,71.88,2.91,14.38,3.38,24.11,12.56,36.44,3.44,4.62,9.33,8.44,10.17,13.82,1.48,9.53-4.24,11.88-5.51,20-2.97,18.87,12.24,28.91,7.5,45.5-2.83,9.9-25.38,37.24-33.73,44.27-15.74,13.26-42.16,19.44-61.96,25.04-3.34.95-6.36.27-10.06,1.94-4.94,2.23-11.17,9.29-17.49,12.51-16.05,8.19-37.71,7.7-54.48,1.47-10.03-3.73-10.92-9.23-14.51-18.4-16.69,8.28-34.94,4.22-52.51,1.92-2.04,9.36.25,13,4.97,20.53,13.51,21.57,53.57,59.94,79.65,62.34,16.53,1.53,26.16-9.19,40.38-14.86l-23.5,25.99c-2.94,6.51,6.45,2.64,9.49,1.48,12.77-4.88,20.95-15.41,32.11-22.89,34-22.8,66.22-26.97,106.45-26.63,49.06.41,120.92-.02,163.76,26.24,24.13,14.79,5.97,32.73-6.3,47.79l36.46,3.05c11.64-.82,24.28,1.64,35.49-1.59,6.99-2.01,13.01-7.23,20.04-8.46,6.73,48.79,51.66,22.62,52.01-13l6,1.01c-2.04,4.79-.52,10.24-1.12,15.38-1.25,10.69-15.47,27.91-25.92,31.08-17.11,5.2-22.3-5.56-35.61-11.33-15.12-6.55-54.74-8.2-69.02-.31-24.5,13.54-4.93,39.82,6.27,55.06,9.38,12.77,20.13,24.73,29.35,37.65l70.04,36.47c1.09,1.44-5.42,2.87-6.5,2.99-22.1,2.43-52.94-18.81-63.06-38.06-2.19-.16-8.78,5.28-7.28,8.31.69,4.41,15.7,25.7,15.59,27.26-.07,1.04-2.97,3.39-4.29,3.52-4.15.43-25.62-14.62-29.93-18.06-20.02-15.93-37.67-37.97-50.54-59.96-1.81.27-1.09,5.19-.97,6.48,3.1,32.3,30.72,52.31,52.44,72.56,1.01.94,2.08,1.88,3.54,1.97.19,1.9-2.01.8-3.01.51-19.11-5.63-39.06-26.12-49.4-42.61-4.46-7.11-16.76-29.62-18.15-36.92-.43-2.25,3.02-7.92,3.46-11.6,1.78-14.96-1.56-32.72-11.39-44.38l7.49,51.99-10.25-27.23-5.75-24.76c-1.72.95-3.5,4.65-4.06,6.42-6.59,20.96,9.1,54.37,18.9,73.24,9.83,18.92,22.18,36.39,33.02,54.68l-2.53,2.54-2.81-.91-40.53-59.54-4.99.56c-.92,1.2,9.34,24.05,10.01,28.48.09.59.26,1.65-.51,1.5-9.12-9.02-16.27-18.8-14.42-32.41.39-2.88,2.23-5.61,2.67-8.32,1.27-7.81-5-23.89-6.46-33.05-4.65-29.03-1.31-57.36,2.7-86.2l-7.74,15.75c-8.98,24.74-11.43,51.23-14.26,77.24l-12-77.98-4.84.13-7.15,53.85c-2.71.37-1.55-.21-2.01-1.47-3.32-9.07-5.32-20.07-8.06-29.44-9.62-3.17-7.47,15.71-15.67,9.46l5.73-53.54-6.17,10.31c-5.88,14.68-5.43,31.11-6.83,46.68l-1.98-8.5c-1.4-11.46-1-24.8-3.01-35.99-.56-3.09-3.87-3.2-4-2-1.09,10.6-1.01,21.39-2,31.99-.12,1.24-.36,5.35-1.99,5.51v-58h-5c-1.61,15.41-2.96,31.2-8.82,45.68-1.9,4.71-8.61,19.11-11.3,22.7-2.59,3.47-5.48-.16-8.88-.38v-75c-20.27,23.98-16.61,59.45-17.01,88.99l-6.98-35.51-.02-39.48-4.96,2.78-13.05,77.2-10.06-69.92-3.93-.07v56l-8.98.99-9.93-38.4-3.09-.59v45l-8.5-18-19.49,29-6.1-42.9-4.96.34,2.14,52.89-3.07,1.67-13.63-39.9-3.39.9v24l-25-5-1.5,22-10-17.99-8.49,25.99c-2.49-13.65-1.72-29.49,8.97-39.52,4.12-3.87,9.61-5.89,13.93-9.07,5.45-4.01,9.35-9,14.95-12.54.98-1.7-1.17-4.89-3.18-4.71-11.1,5.34-21.7,11.78-32.66,17.36-64.97,33.07-135.36,57.91-203.6,83.4-32.26,8-65.53,10.68-98.42,15.09l78.99,23.98c-33.45,1.11-64.86-6.4-94.02-22.47-18.11-9.98-44.59-29.71-63.76-35.24-7.68-2.21-15.05-.34-22.65-2.15-2.17.55-1.38,9.13-9.81,8.64-4.52-.26-12.77-5.37-17.96-7.07-2.19-.72-5.37-.33-6.81-1.19-.61-.36-4.57-7.63-5.73-9.25-.5-.69.2-1.7-1.75-1.25l-8.52,10.55-20.99-4.56c-.63,4.6.4,8.38-5,9-1.91-5.37-13.34-44.04-15.52-45-.37-.16-2.52-.36-2.5.5l2.03,38.98c-.26,2.85-2.6,2.68-5.02,2.52l-6.01-44.01-3.84,1.16,2.84,47.83c-8.13.71-14.82-6.95-17.53-13.96-1.84-4.76-4.26-23.51-8.13-24.87-1.3-.46-2.95-.11-4.33-.17l1.99,52c-5.41-6.19-13-12.31-17.18-19.31-5.46-9.13-6.61-19.71-9.39-29.75l-5.44.57,4.92,39.38-2.4,1.09-10.99-36.98c-13.37,10.2-4.65,28.69-6.52,42.99l-11.95-34.54-6.06.06,5.01,41.48c-2.88-1.84-11.64-14.37-13.7-14.85-1.03-.24-4.17.48-4.37,1.5l3.07,19.35c-4.08-3.05-13.46-17.23-18.48-16-2.26.56-.51,2.37-.51,2.5v20.5l-5.4-7.1c-3.11-6.64-2.02-30.09.34-37.45,1.99-6.21,4.82-7.83,10.04-10.96,22.37-13.42,54.43-27.42,78.66-38.34s35.15-18.14,62.62-8.9c27.28,9.18,39.07,34.67,58.6,53.28,20.76-9.44,40.22,7.75,60.53,5.37,4.52-.53,8.16-2.86,13.1-2.96,6.36-.13,12.74,2.56,19.03,3.06,18.32,1.46,26.41-4.4,41.48-13l-.61-2.05c-5.05-3.55-8.98-.95-13.84-.89-56.46.64-78.43-26.05-125.18-45.9-50.73-21.53-133.62-.12-183.33,19.39-96.68,37.95-206.3,94.75-312.48,95.51-6.73.05-13.34-.78-20.06-1.04-1.21-.05-3.72.75-3.48-.99,24.34-3.16,49.01-4.87,73.18-9.32,46.47-8.56,100.77-26.47,145.33-42.67,97.66-35.51,200.68-97.46,308.48-66.52,20.15,5.78,33.23,14.77,49.51,27.47,1.53-.09,3.56-9.71,4.4-11.58.53-1.17-.47-1.81,2.08-1.39l14.62,22.91c1.25.3,4.92-2.18,5.17-3.53.85-4.59-3.65-15.89-2.28-21.39l19.52,32.99c2.1-.1,4.75-1.19,5.01-3.49.59-5.17-4.97-18.29-4.52-24.52,8.7,2.52,9.76,23.39,16.43,25.57,5.61,1.84,21.01-1.76,25.57-5.55,6.03-5.01,2.41-8.86,1.5-15.01l20.99,21v-24c11.34,9.07,3.56,32.65,26.01,25.99l-6-31.99c11.72,6.99,27.21,31.31,42.03,16.54,10.22-10.18,5.84-13.65,4.97-25.07-.08-1.08-.62-2.74.98-2.47l31.34,41.86,5.7-4.3-20.11-45.94,2.76-1.48,18.39,32.84,5.98-2.64c.83-4.87-5.97-30.5-3.45-32.42.66-.5,2.53-1.05,3.4-.5l20.01,46.58,7.07-13.93c2.05-1.45,11.24,6.1,13.91,6.93.97-2.57.34-18.08,2.51-17.98l13.49,15.98-2.88-35.9,6.77-.98c3.64,9.73,11.04,15.73,19.63,20.88,3.06-7.06,1.25-15.56.5-22.99,1.92-.47,1.92.7,2.81,1.68,4.73,5.2,8.95,12.55,13.35,18.18l7.41-1.81c-1.26-7.7-1.46-15.71-2.72-23.42-.53-3.27-2.13-13.36-3.41-15.59-2.15-3.73-13.41-5.68-17.19-8.32l-6.25-18.3c.13-3.86,18.03-10.19,16.57-16.44l-27.59-34.98c-1.59-.27-1.07,1.4-.98,2.47.48,5.79,1.27,11.75,1.99,17.52-.95.95-19.88-5.59-22.33-7.16-9.81-6.24-12.03-24.16-13.67-34.84-1.99.41-1.7,2.06-1.98,3.51-1.46,7.55-2.1,15.82-3.02,23.49-.76.81-15.89-5.8-15.95-8.41l4.02-33.01-6.53-1.61c-3.46,12.34-3.92,25.67-7.06,38.06-.46,1.8.18,3.55-2.48,2.97v-43h-4.99s-8.05,40.96-8.05,40.96l-23.29-3.12-1.53-1.47,2.37-45.36c-11.84,10.85-11.26,28.61-11.52,43.48l-1.98,8.5-17.52-33.99-4.5,24.99c-.86,1.02-3.87-2.22-4.52-2.97-9.9-11.47,3.26-38.31,3.03-52.02-14.73,11.85-17.97,32.11-19.51,49.99-1.75.23-.94-2.27-.99-3.48-.49-11.89.81-22.79,1.99-34.51l-3.43-.05-12.52,47.62-4.88-2.23-1.12-30.67-2.55-1.65-7.54,28.93-4.96.04,13.96-68.64c.62-3.65-2.96-3.22-5.5-4.13l-20.46,80.77c-1.54-.18-2.16-3.7-2.5-4.98-6.74-25.46,5.24-45.74,15.51-68l-5.91-.94-7.11,17.93c-2.79-2.32-5.16-9.59-8.84-5.35l-7.16,57.35c-5.44-5.17-9.36-15.32-10.73-22.76-2.91-15.74,2.37-29.14,5.74-44.24l-7.06.44-14,60.5-3.94.06v-59l-3.78,1.72c-2.73,6.06-10.95,44.91-13.49,47.02-.63.52-2.71.55-3.73,1.26-1.14-5.38-7.41-43.9-9.52-44.99-1.97-1.02-1.53,2.15-1.77,3.19-2.14,9.2-3.78,18.56-5.72,27.79l-3.01-17.47-1.48-2.5-24.5,18.98v-27.5c0-.96,3.1-6.76,4.01-7.99,5.69-7.79,12.82-5.73,13.02-19.06.09-5.93-4.3-9.57-6.51-14.46-7.68-17.02-5.44-31.61-4.47-49.44.06-1.16.7-5.55-1.04-5.54-16.61,38.07-9.86,81.72-19.5,121-1.24,5.05-1.14,10.66-7.51,8.99l10.89-103.43c-.5-2.1-4.61-1.8-6.25-1.45-2.16.75-10.97,28.73-12.13,32.87-7.27,25.84-9.79,50.91-1.51,76.99h-7s-3.99-43-3.99-43h-6.01s2.06,53.54,2.06,53.54l-6.04.46-4.02-49.98-6.99-1.01-6.48,37.04c-1.39,2.62-5.68-4-8.5-2.58-10.32,11.33-26.88,18.28-23.04,36.55l-3-27.99c-.97-1.11-6.22,4.55-7.02,5.47-13.27,15.31-6.62,35.33-5.99,53.52l-10.88-42.41-7.11.42v41l-3.94-.06-7.07-28.94c-1.21-.91-6.18,5.54-6.83,6.66-.78,1.34-3.16,6.77-3.16,7.84v40.5l-7.01-38.99h-7.99s-4,41.49-4,41.49l-3,2.5v-55c-1.96,0-3.83-.49-5.51.99-1.87,1.64-6.76,15.94-7.75,19.25-2.78,9.28-4.77,19.63-5.72,29.28-.43,4.36,1.37,9.96-1.52,13.48l-5.54-30.94-7.95-.06-6.01,41.01c-1.91-.35-1.66-2.08-2.04-3.45-2.91-10.44-3.48-22.96-6.41-33.59-1.08-1.53-7.1-1.5-8.11-.03l-7.43,55.58-2-1.01v-48.5c-1.74-.43-2,.72-3.01,1.49-15.03,11.52-15.01,31.42-17.45,48.55l-2.54,7.96v-43l-5.43-.89-14.58,55.88-1.03-8.54c2.02-11.22.6-23.56,2.15-34.85,3.3-24.03,30.55-31.98,48.56-42.44,58.39-33.88,103.68-83.23,146.3-134.7,4.11-4.96,8.14-9.99,11.54-15.48l4.43,3.5c-16.02,19.1-29.87,39.82-42.94,61.01l5.66,3.36,1.87-.78c18.79-26.1,39.25-51.12,57.28-77.77s31.2-53.37,51.67-76.33c17.49-19.61,38.09-41.27,67-37l78.15-27.94c3.29-1.04,3.37,3.19,3.31,5.9l-19.32,6.96-.58,4.05c16.5,3.83,33.85,4.69,50.17,9.33,35.58,10.12,75.84,46.53,53.95,86.38-6.48,11.8-14.85,15.09-23.19,23.81-2.64,2.76-6.53,10.43-9.99,10.14-10.59-.89-26.04-15.82-32.19-1.31-3.36,7.94-6.71,22.43.68,28.71,5.09,4.33,12.24,3.35,15.47,5.53,3.34,2.25,3.57,10.7,12.78,13.22,5.68,1.55,9.76.32,14.77.25,25.96-.38,46.59-2.03,67.96-18.04,5.37-4.02,9.3-11.1,17.53-10.96l-39,42.98c18.6,2.82,37.72,15.16,53.49-1.7,26.22,16.99,55,13.46,82.51,1.72-2.87,20.76-24.56,24.18-42,25v2.99c10.71,1.96,21.75-.94,31.34,5.17,2.44,1.55,3.75,3.82,6.62,5.38,13.33,7.26,22.29-3.04,33.52-7.58,13.65-5.51,28.89-5.1,38.94-18.06,4.5-5.8,6.62-13.43,11.58-18.91,1.18,14.25-6.98,26.37-17.51,34.98-7.72,6.31-20.75,10.47-18.89,23.13,15.21,4.61,42.24,9.4,55.34-1.69l36.08-40.42v27ZM861.01,556.99l-3-14.5,37.98-109.49c-2.38,1.36-4.58,3-6.51,4.98-21.88,22.37-44.01,87.48-44.52,118.48-.05,3.17.36,11.12,1.2,13.88.33,1.1,1.06,1.73,2.24,1.62l68.6-7.47c-3.08-12.72-18.21-5.26-20.02-19.95-2.4-19.42,13.97-48.8,17.03-68.52-6.02-2.41-10.28,4.61-13.2,9.3-12.59,20.27-12.17,46.66-14.81,69.69-5.41-1.67-10.76-10.15-10.8-15.49-.05-6.41,7.95-22.87,10.3-30.51,4.09-13.25,6.56-27.24,10.46-40.57.51-2.46-4.15-1.34-5.56-2.37l-29.39,90.93ZM920.99,547l36-103c-2.43,1.78-5.06,4.2-6.97,6.52-14.83,17.99-33.61,70.06-31.06,93.01.17,1.5.21,3.09,2.03,3.46ZM1021.83,452.16l-5.83-1.74-27.99,41.57c6.48-.55,12.12-4.45,16.51-8.98,1.81-1.87,16.2-20.02,16.73-21.27,1.23-2.9.91-6.52.58-9.58ZM934.99,553.99l44-102.99c-15.61,12.5-26.56,31.94-34.17,50.32-5.44,13.15-11.61,31.99-11.91,46.17-.03,1.29.37,6.08,2.07,6.5ZM1031,507.5c.83-5.9-.61-13.4,0-19.5l-17,32.99c8.82,1.51,15.81-5.02,17-13.49ZM970.97,549.98l14.02-54.98c-17.16,11.37-15.06,35.26-19.07,53.35l5.05,1.63ZM1240,753.99l-41.56-37c-1.23-1.67,2.34-4.98,3.89-4.85l19.19,14.67,3.44-3.32-47.94-51.5c5.05,12.75,3.25,28.08,9.11,40.38,3.56,7.48,24.29,27.49,31.56,32.44,6.7,4.56,14.25,8.06,22.31,9.18ZM1509.01,760.99c4-1.48,8.26-4.7,9.73-8.76,4.16-11.43,2.99-27.96,6.06-39.98,0-2.83-3.61-2.48-5.71-2.16l-10.08,50.9ZM1588,795.5c-.75-7.09.55-15.28,0-22.5-1.56.88-2.24,5-2.72,6.78-12.06,45.09,19.88,81.8,52.7,107.73,5.86,4.63,7.2,5.55,15.02,2.98-17.46-20.32-39.4-37.58-52.82-61.18-4.96-8.73-11.14-23.91-12.19-33.81Z"/>
    <path d="M635,488l24.7-7.81c4.99,2.72,9.08,7.13,14.59,9.02,13.75,4.73,30.38-.64,44.7.8-2.64,8.93-18.06,13.04-18.68,23.63-.4,6.9,9.8,16.64,15.16,20.38.85.59,1.05,1.36,2.51.97l72.53-102.98c1.95-2.37,4.6.33,6.52,1.52-12.79,22.19-28.04,43.16-43.21,63.79-35.14,47.76-73.16,96.78-122.32,130.68-1.63-1,.33-2.21,1-3,9.78-11.66,30.88-26.71,34.82-40.18,2.95-10.07-.57-28.43,6.23-35.77,5.21-5.61,17.09.37,23.08.88,7.18.61,6.68-5.39,11.18-9.42l-23.83-36.51-8.97,12c-1.82-4.2-2.89-9.6-4.92-13.58-.53-1.05.51-1.89-2.07-1.41l-15.01,22.99,3.98-32-26.49,30c-.28-6.08,6.66-15.76,7.08-20.93.13-1.58-1.1-2.25-2.2-3.01l-28.88,24.94,5.5-19.99-18.99,14.99,1.49-16c-11.38,5.88-14.11,26.05-30.05,21.07-1.97-.62-8.65-4.23-8.31-6.37.58-3.64,16.35-18.48,17.5-22.66.61-2.24-1.8-4.44-3.99-4.95l-36.19,34.95-15.45-3.03c-.03-4.25,12.6-20.92,11-22.99-.09-.12-2.5-.73-3.02-.51l-48.63,46.35c-1.59-.06-4.44-1.27-4.25-3.17.37-3.81,15.1-20.93,15.77-25.4.37-2.43-1.92-4.21-3.86-5.27-19.01,32.25-49.47,57.95-81.1,77.42-23.71,14.58-55.66,33.93-80.56,45.44-22.26,10.29-48.02,17.32-72.37,10.64,11.35-1.94,22.82-2.06,33.69-6.32,26.21-10.27,60.2-28.12,85.34-41.66,33.44-18.01,61.9-37.21,88.01-64.99,47.99-51.08,81.81-124.9,167.19-101.24,26.89,7.45,48.95,24.86,73.51,33.49,12.92,4.54,28.47,3.55,41.27,10.24,1.14,2.92-4.73,6.71-4.68,8.49.07,2.28,4.71,4.06-4.32,5.49,9.78-14.79-12.53-11.73-21.38-13.11-17.1-2.67-34.28-13.97-49.95-21.05-31.49-14.23-74.6-30.5-107.35-12-12.04,6.81-24.87,18.3-30.32,31.17,12.33-5.49,34.15-19.94,47.81-16.31,11.53,3.07,13.71,21.85,26.5,28.49,15.79,8.19,25.71-4.25,38.68-11.18v15Z"/>
    <path d="M1746,730.99l-24.48-20.01-1.03-22.97c-11.03-5.56-19.15-14.8-29.18-21.82-16.59-11.61-34.2-18.45-54.86-17.23-15.46.91-27.57,10.92-43.41,8.99l-.98-8.88,46.92-9.08c-.28-1.33-3.14-2.56-4.33-3.15-26.67-13.15-75.25-7.71-103.85-1.53-21.55,4.66-43.71,11.85-62.32,23.68l3.5-20.99c-44.81,1.11-81.31,22.8-117.9,45.59-.85.53-2.17,2.51-3.1.91,19.4-16.46,40.9-30.95,64.74-40.26,40.73-15.89,81.92-13.93,124.74-16.26,22.08-1.2,48.3-5.74,69.99-3.97,19.57,1.59,42.6,17.27,60.84,25.16s29.63,6.4,41.9,24.1c2.25,3.25,6.65,13.1,8.3,14.7,2.17,2.11,8.27,2.47,10.36,5.64l14.11,37.38Z"/>
    <path d="M1275.01,409c2.31,1.72,20.95-18.86,22.98-17,1.74,6.43,3.21,14.54,5.98,20.53.46.99.58,2.35,2.02,2.47l5.51-19.99c7.21,8.41,14.37,32.25,23,38,7.28,4.85,21.59-1.96,26.02,1.98,1.09.97,12.65,24.28,13.07,26.01.81,3.29-.89,3.91-3.09,5.94-10.59-12.26-37.73-4.77-45.7-19.24-2.18-3.96-2.42-13.31-4.45-14.55-15.71-4.14-32.12-6.31-47.56-11.44-5.67-1.88-18.68-6.37-21.06-12-2.9-6.87,10.58-16.97,13.77-22.69l9.51,21.98Z"/>
    <path d="M1089.5,335c4.5.53,10.45,3.12,13.97,6.03l17.53,20.97v-26l9.48,12.76,12.5-5.76,8.52,23,12.48-13.99,3.03,18.99,3.8-1.68,6.17-19.31c6.27,20.06.04,31.57-21.34,33.07l-4.89-16.84c-12.36-3.87-23.92-2.34-35.75,2.29-8.45,3.31-15.27,8.99-23,13-16.3,8.46-34.03,9.93-52.02,11.47l58.98-35.49-26.98-22.5c5.58.47,12.05-.64,17.5,0Z"/>
    <path d="M516.99,704.01c-4.89,27.17-29.51,33.61-50.35,44.14-29.33,14.82-56.41,30.4-90.6,31.84l-2.05-5.97c20.95-7.46,44.51-13.19,64.38-23.13,15.43-7.72,30.99-20.59,46.32-29.68,10.41-6.17,21.31-12.11,32.3-17.19Z"/>
    <path d="M532,672.01c-18.36,15.6-39.44,28.17-60.33,40.16-38.09,21.87-79.22,43.09-121.67,54.82l182-94.98Z"/>
    <path d="M642,557l-40.52,46.99-2.46-1.49,11.84-26.79-2.36-2.59-14.01,9.87-.51-1.5,13.16-29.34c11.89-.6,25.89-5.52,36.19,3,9.09,7.52,2.72,24.38,3.66,34.85h-5.01v-33Z"/>
    <path d="M559,560c-2.95,17.15-20.33,32.49-33.54,42.95-1.22.96-9.76,7.75-10.45,7.04l15.06-28.42c0-.37-3.3-2.34-4.05-2.09-2.69.89-13.26,11.51-14.51,11.5-16.24-29.17,29.82-28.83,47.5-30.98Z"/>
    <path d="M1042,341.99l-92.32-6.96-1.68-4.03c11.82-2.8,23.94-2.18,36-2.02l-12.99-8.98c19.17,3.4,39.99.11,57.66,9.82,1.45.8,15.47,10.35,13.33,12.16Z"/>
    <path d="M530,728.01l-16.01,56.99c-2-.38-1.64-2.11-1.99-3.5-2.33-9.27-3.03-19.28-5.57-28.54l-6.39.08-9.03,30.95c-4.37-17.14-3.58-26.94,9.98-38.5,2.93-2.5,27.36-18.81,29.01-17.48Z"/>
    <path d="M791.99,699.99l-14.15-26.82-3.83-.17,2.73,31.54c-.72,1.62-2.41,2.03-3.79,1.01s-6.83-30.04-6.62-32.92c.87-11.97,23.11-16.51,31.66-21.63l-6,48.99Z"/>
    <path d="M407,840.01l-31.78,10.71c-36.13,10.44-73.62,13.83-111.21,12.27l142.99-22.98Z"/>
    <path d="M621,636.01c-28.78,28.91-59.72,57.11-101,65.98l101-65.98Z"/>
    <path d="M441,684.01c-33.35,24.09-71.54,43.85-112.99,48.98l112.99-48.98Z"/>
    <path d="M381.99,614.01c.43,1.88-1.06,2.37-1.99,3.5-16.41,19.76-50.46,36.17-75,43-14.28,3.97-29.36,6.78-43.99,3.49l24.83-3.65c19.04-4.08,36.74-12.14,53.84-21.16l42.32-25.17Z"/>
    <path d="M381,803.01l-38.98,10.5c-25,5.88-50.63,9.27-76.01,3.48l114.99-13.98Z"/>
    <path d="M443,702.01c-32,21.84-65.57,44.64-104.99,49.98l104.99-49.98Z"/>
    <path d="M369.99,831.01l-22.17,7.32c-26.38,6.18-53.34,6.19-79.82.66l101.99-7.98Z"/>
    <path d="M590.9,548.09c.99,4.14,3.51,7.78,2.9,12.15-.38,2.76-11.48,24.16-13.34,25.79-1.55,1.36-2.84.71-4.39-.48l9.99-21.97-4.5-2.56-21.06,31.97-2.33-2.63,19.37-37.32c1.3-2.6,11.83-6.05,13.36-4.95Z"/>
    <path d="M381,639.01c-26.51,23.1-61.88,33.28-95.99,38.98l95.99-38.98Z"/>
    <path d="M1236,368v35c-15.92-6.46-38.85-11.82-20.01-32,.7.52,4.75,14.14,6.5,16.01,5.77,6.18,7.31-16.19,9.01-19.06l4.5.05Z"/>
    <path d="M1522,837l33.01,74.49c-.56,1.12-2.65-1.53-3.04-1.96-10.58-11.78-29.97-40.14-29.97-56.03v-16.5Z"/>
    <path d="M451,573.99l18.67-15.85c1.07-.09,14.15,11.4,14.36,13.39s-2.19,5.9-3.64,7.36c-9.07,9.19-19.78-4.68-29.4-4.91Z"/>
    <path d="M1109,715l-7.93.92c-1.15-7.68-8.03-21.46-5.29-28.65,1.84-4.82,9.37-10.69,13.22-14.28v42Z"/>
    <path d="M317,713l74.49-21.02-5.57,4.43c-10.03,6.37-33.84,16.58-45.42,16.58h-23.5Z"/>
    <path d="M408,653.01l-8.51,9.98c-2.36.91-1.97-5.88-5.79-5.8l-48.69,13.8,43.68-24.87c3.13-.29,4.22,8.9,6.99,9.78l12.33-2.89Z"/>
    <path d="M1194.01,383l4.98-18-13.99,3.99c3.08-12.05,3.9-22.75,1.01-34.99,14.89,9.84,23.03,35.68,8,49Z"/>
    <path d="M506,848.01c-13.13,11.41-30.72,22.01-47.96,25.53-6.68,1.36-13.36,1.3-20.03,2.46-.51-2.67.58-1.74,2-2.44,16.02-7.9,38.65-16.01,55.74-22.31,3.28-1.21,6.81-2.79,10.25-3.24Z"/>
    <path d="M1504,876.99l-6.97.98-15.04-51.46c2.4-.49,5.71-2.72,6.83.16l15.18,50.32Z"/>
    <path d="M544,848.98l-52.5,30.9c-1.65-.85-4.46-5.33-3.42-6.8l53.44-29.07,2.48,4.96Z"/>
    <path d="M835,624v41.5c0,.48-1.74,2.2-2.51.51l-4.5-15.01c-2.57-.28-1.59,0-2.02,1.46-1.03,3.5-1.42,7.84-2.03,11.48l-3.95-.45,9.11-39.39,5.91-.1Z"/>
    <path d="M329,787.01l-25.99,7.49c-13.91,3.2-30.46,5.06-43-3.01l68.99-4.48Z"/>
    <path d="M1199.99,827c-6.82-3.33-10.13-12.49-18.95-9.45-2.49.86-9.06,8.87-11.03,7.45-7.74-16.46,13.34-16.84,24.36-16.87l5.62,18.87Z"/>
    <path d="M814.01,636.99l3.88,50.43c-.5,2.06-4.22,1.63-5.88,1.58l-5.01-52h7.01Z"/>
    <path d="M1221.01,820l-4-16.53-10.53,4.41-3.51-5.36,16.67-13.37c3.29.56,4.97,2.03,5.41,5.3.51,3.81.59,19.48-.05,23.05-.44,2.47-1.6,2.77-3.99,2.5Z"/>
    <path d="M584.87,838.14l2.13,3.84c-16.37,10.2-31.48,22.28-47.52,32.97l-3.48-4.45,48.87-32.35Z"/>
    <path d="M1227,430l1.94,11.57,18.07-.56c-7.5,14.94-22.06,7.71-35,7.98,3.94-5.75,8.19-12.46,12.71-17.72.62-.72-.04-1.88,2.29-1.27Z"/>
    <polygon points="850.01 647.99 853 697 846.99 697.01 844 648 850.01 647.99"/>
    <polygon points="1468.92 820.07 1480.6 865.04 1476.49 866.99 1463.09 821.1 1468.92 820.07"/>
    <path d="M1510.96,860.01l28.91,53.51c-2.16,2.53-4.07,3.13-5.71-.19l-27.17-52.32,3.96-1Z"/>
    <path d="M1132.01,720.99l-6.97.98-7-31.6c-.52-4.86,4.93-2.59,7.95-4.38l6.02,35Z"/>
    <path d="M985,904.01c.52.61-.16,3.65-1.47,3.83l-55.5-13.88c-.19-1.82-.6-6,2.26-5.81l54.71,15.86Z"/>
    <polygon points="873.99 660 877 695 870.64 694.86 869 692.5 867 661.01 873.99 660"/>
    <path d="M302.99,772.01l-19.62,4.87c-9.27.88-21.03-.55-27.38-7.87l46.99,3Z"/>
    <polygon points="427.99 878.01 388.03 895.98 386 890.02 427.99 878.01"/>
    <path d="M258,752l.15-4.34,2.34-1.69c11.05,2.27,22.98,2.02,34,4.07,1.65.31,1.72-.66,1.51,1.97h-38Z"/>
  </g>
  <g>
    <path d="M320.64,451.77c-8.36-19.7-3.34-107.21-5.22-111.63-.47-1.1.37-1.68,1.48-2.15,3.87-1.64,16.8,2.21,18.28,5.71,1.48,3.5.4,28.08-.46,54.73-.86,26.65,1.63,42.76,5.46,51.78.86,2.02,2.93,3.32,4.77,2.54,3.5-1.48,9.17-21.92,12.26-35.62,1.26-5.75,1.55-7.61,2.47-8,1.47-.62,6.29,2.54,7.47,5.31s1.37,5.28-.38,11.9c-3.09,12.17-8.84,33.95-19.52,38.48-11.42,4.84-21.84-1.81-26.61-13.04Z"/>
    <path d="M404.27,398.65c1.41-5.71,1.76-7.56,2.69-7.93,1.49-.58,6.22,2.72,7.32,5.51,1.09,2.79,1.23,5.32-.71,11.88-3.42,12.08-9.63,34.06-22.1,38.96-10.43,4.09-25.81-.62-31.36-14.77-6.06-15.45-2.5-35.97-2.45-54.46.01-7.09.41-11.55,3.02-12.57,4.84-1.9,17.5-1.92,19.04,1.99,1.53,3.91.32,7.39-.41,16.49-2.64,33.26-2.54,40.09.53,47.91,1.9,4.84,5.08,6.39,8.06,5.22,5.96-2.34,12.91-24.61,16.38-38.22ZM383.83,323.53c2.26,5.77.14,18.42-6.75,21.12-6.7,2.63-12.74-.16-15.15-6.3-2.41-6.14,1.61-17.82,6.82-19.86,5.77-2.26,12.82-.73,15.08,5.04Z"/>
    <path d="M482.22,370.32c1.57-5.67,1.96-7.51,2.9-7.85,1.5-.54,6.15,2.88,7.17,5.7,1.02,2.82.76,5.04-1.22,11.92-3.49,12.11-12.98,24.68-32.36,31.68-3.01,1.09-6.16,1.8-9.25,2.07-5.44,10.26-9.8,15.24-13.57,16.6-5.45,1.97-23.82,1.17-28.72-12.38-4.89-13.54.68-56.39-2.18-64.29-.61-1.69.11-3.23,3.12-4.32,4.14-1.5,15.94,2.32,18.52,9.47s-1.19,48.49,1.39,55.64c1.16,3.2,2.62,3.73,3.75,3.32.38-.14,1.66-1.88,3.27-5.65-.77-.36-1.16-.86-1.36-1.42-1.7-4.7.93-10.97,4.88-12.4.38-.14,1.01-.15,1.45-.1,1.12-3.38,2.1-7.14,3.06-11.53,4.64-19.54,6.58-35.34,3.05-45.12-1.97-5.45-4.17-7.42-4.92-9.49-.54-1.5.18-3.04,1.87-3.65,5.64-2.04,18.14,4.29,22.42,16.14,4.83,13.35.06,32.52-7.88,51.76l-1.85,4.29,1.13-.41c15.05-5.44,21.48-16.48,25.31-29.99Z"/>
    <path d="M483.44,378.53c-6.79-19.66,6.27-57.81,19.88-62.51,9.07-3.13,26.12.29,28.93,8.42,2.15,6.24.79,20.67-5.9,33.77-5.26,10.49-21.39,16.48-21.39,16.48,0,0,.34,2.21,1.12,4.48,2.61,7.56,10.3,10.83,16.92,8.55,12.85-4.44,21.85-26.8,25.88-40.25,1.65-5.65,2.07-7.49,3.02-7.81,1.51-.52,6.1,2.97,7.08,5.81.98,2.84,1.01,5.37-1.2,11.84-3.92,11.93-13.47,35.12-33.32,41.97-13.61,4.7-34.29-1.28-41.02-20.75ZM519.99,330.58c-.39-1.13-1.6-1.56-3.11-1.04-4.35,1.5-14.79,30.71-13.09,35.62,7.37-2.55,18.29-28.53,16.2-34.58Z"/>
    <path d="M604.12,358.68c-1.87-1.67-3.33-5.18-4.21-7.63l-.87-2.45s-6.47,26.52-18.33,30.75c-11.68,4.17-27.11-4.56-30.94-15.29-7.12-19.97,8.16-69.38,27.18-76.17,8.67-3.09,21.23,1.77,23.45,7.98,0,0,2.15-2.89,3.66-3.43,3.96-1.41,15.59,1.44,16.53,4.08s-5.58,20.68-5.12,36.23c.24,8.41,1.15,12.75,1.83,14.64,1.08,3.01,4.51,3.7,6.95,2.83,3.96-1.41,11.32-21.24,15.21-34.73,1.59-5.66,1.99-7.51,2.94-7.84,1.51-.54,6.13,2.91,7.14,5.73,1.01,2.83,1.06,5.35-1.08,11.85-3.8,11.97-10.14,32.29-22.01,36.52-8.29,2.96-17.25,1.06-22.33-3.07ZM570.56,365.78c1.01,2.83,3.99,3.46,6.63,2.52,4.33-1.55,14.28-24.84,16.88-39.58-.9-.74-1.67-1.1-2.14-2.42-1.14-3.2,4.17-12.11,1.02-20.96-1.01-2.83-3.87-3.71-6.32-2.84-8.85,3.16-21.65,47.65-16.07,63.28Z"/>
    <path d="M819.92,217.05c1.14,21.17-24.09,39.76-38.12,46.93,13.38-.72,34.13,16.38,35.49,41.34,2.2,40.74-62.68,81.7-101.62,83.81-14.58.79-30.91-15.95-31.47-26.34-.99-18.37,48.48-51.69,71.44-52.94,4.39-.24,10.46,4.44,10.6,7.04s-1.45,2.88-6.4,3.95c-19.01,4.03-62.32,29.01-61.65,41.39.19,3.59,3.11,5.64,7.5,5.4,38.54-2.08,92.48-38.05,90.53-74-.66-12.18-11.51-20.21-22.29-19.62-10.98.59-24,8.11-28.19,8.33-3.99.22-13.27-8.3-13.45-11.69-.26-4.79,10.25-10.37,27.81-19.13,20.87-10.34,39.38-27.37,38.61-41.55-.54-9.99-10.51-16.66-28.49-15.68-52.52,2.84-79.19,28.32-93.26,42.1,0,0,3.29,5.23,3.43,7.83.16,3-9.43,7.12-19.3,17.27-5.12,5.28-10.62,10.99-13.22,11.13-3.2.17-10.79-7.03-11.09-12.42-1.03-18.97,63.06-74.71,122.57-77.93,30.95-1.67,59.51,15.21,60.57,34.78ZM749.7,218.65c.26,4.79-13.75,12.36-33.16,53.47-19.22,40.9-20.79,52.6-20.83,55.61-.04,3.01-1.19,3.87-3.19,3.98-4.79.26-14.85-4.2-15.32-12.99-.46-8.59,3.85-25.04,20.25-58.78,16.06-32.71,23.25-40.51,27.15-46.13,1.3-1.87,2.42-3.34,4.02-3.42,4.99-.27,20.82,3.48,21.08,8.27Z"/>
    <path d="M885.45,212.16c1.31-.49,9.95-1.35,14.69,11.4,3.55,9.56,3.65,27.66-.73,44.01,11.75-6.28,15.86-17.62,19.18-29.95,1.52-5.68,1.9-7.53,2.83-7.88,1.5-.56,6.17,2.83,7.21,5.64,1.04,2.81.8,5.04-1.12,11.94-3.39,12.14-12.66,27.96-31.98,35.12l-2.44.91c-4.19,7.1-9.69,12.98-16.62,15.56-12.75,4.73-29.53-3.12-34.89-17.55-7.1-19.12,2.77-66.1,18.89-72.08,5.81-2.16,20.67-.63,24.97,2.89ZM864.6,280.71c2.02,5.44,5.85,6.57,8.48,5.6,1.88-.7,3.66-2.21,5.16-4.48-.65-.61-1.05-1.1-1.33-1.85-1.25-3.38,1.51-9.73,4.51-10.85.56-.21,1.38-.3,2.27-.2,3.86-14.88,4.26-35.08,1.33-42.95-1.53-4.12-4.31-5.87-7.5-4.68-10.88,4.04-19.26,42.35-12.93,59.42Z"/>
    <path d="M973.47,252.52c-1.73-1.81-2.91-5.43-3.59-7.94l-.68-2.51s-8.56,25.92-20.73,29.19c-11.97,3.22-26.66-6.7-29.62-17.71-5.51-20.47,13.66-68.51,33.17-73.76,8.88-2.39,21.02,3.45,22.74,9.83,0,0,2.38-2.71,3.92-3.13,4.06-1.09,15.43,2.68,16.16,5.39.73,2.7-7.21,20.17-7.99,35.71-.43,8.4.13,12.81.65,14.74.83,3.09,4.2,4.05,6.71,3.37,4.06-1.09,12.98-20.27,17.93-33.41,2.04-5.52,2.58-7.32,3.55-7.58,1.54-.42,5.88,3.39,6.66,6.28.78,2.9.63,5.42-2.02,11.73-4.74,11.63-12.68,31.38-24.85,34.65-8.5,2.29-17.28-.32-22.02-4.84ZM939.44,256.92c.78,2.9,3.71,3.77,6.41,3.04,4.44-1.2,16.22-23.63,19.98-38.1-.84-.81-1.57-1.23-1.94-2.58-.88-3.28,5.13-11.74,2.68-20.81-.78-2.9-3.57-4.01-6.08-3.34-9.08,2.44-25.38,45.77-21.06,61.8Z"/>
    <path d="M1017.01,225.36c-2.17.39-6.09-3.37-6.52-5.74-.35-1.97,1.35-4.92,2.18-7.1,9.97-24.76,14.4-36.32,13.86-39.28-.21-1.18-6.62-6.33-7.69-12.23s5.33-30.22,10.25-31.11c4.92-.89,17.69,2.3,18.71,8.01,1.03,5.71-6.42,27.57-5.25,34.07s20.33,5.69,23.27,22.03c1.27,7.09-7.1,26.07-5.47,35.12.53,2.95,2.62,4.41,4.39,4.09,6.3-1.13,17.45-21.63,23.5-34.3,2.5-5.33,3.2-7.08,4.18-7.26,1.57-.28,5.57,3.87,6.11,6.83s.17,5.46-3.01,11.51c-5.71,11.19-15.91,31.31-29.09,33.68-8.86,1.59-23.71-5.29-26.19-19.06-2.48-13.78,5.78-31.12,4.83-36.43s-8.29-7.65-8.29-7.65c0,0-3.32,13.2-14.22,37.31-1.89,4.2-3.39,7.11-5.56,7.5Z"/>
    <path d="M1193.73,190.67c3.07-5.02,3.96-6.68,4.95-6.75,1.6-.11,5.12,4.46,5.32,7.46.2,2.99-.43,5.44-4.25,11.12-6.9,10.49-18.9,31.56-32.27,32.47-6.58.45-9.78-2.34-9.78-2.34-7.78.53-18.04-8.79-19.1-24.36-4.24,11.31-15.71,28.33-27.68,29.15-11.97.82-23.74-4.2-25.05-23.35-1.6-23.55,26.61-65.56,40.17-66.49,14.77-1.01,24.59,4.94,25.66,14.69.82-2.66,19.76-54.27,25.34-54.65,7.38-.5,15.36,4.77,15.59,8.16.23,3.39-2.44,5.38-6.79,15.1-5.05,11.17-25.74,63.5-24.37,83.65.42,6.19,2.34,7.86,5.13,7.67,6.38-.44,19.71-19.59,27.12-31.52ZM1107.59,221c.15,2.19.7,4.36,3.29,4.19,8.18-.56,21.27-23.3,26.44-35.68,3.96-9.49,7.12-21.94,6.89-25.33-.23-3.39-1.52-4.71-3.52-4.57-10.58.72-34.68,38.25-33.1,61.39Z"/>
  </g>
</svg>