<?xml version="1.0" encoding="UTF-8"?>
<svg id="Ebene_3" data-name="Ebene 3" xmlns="http://www.w3.org/2000/svg" viewBox="0 0 2521.14 1080">
  <path d="M1909.08,599.81l20.76-13.91c12.68-11.3,20.45-25.28,18.33-42.83l20.15,21.43c.16-1.65-1.67-3.45-.71-5.03.94-1.56,25.58-16.09,30.31-20.22,8.23-7.18,16.94-19.17,15.72-30.71-1.2-11.31-15.44-21.66-15.09-35.39.32-12.54,11.97-20.54,10.12-33.46l-35.28,31.51c3.06-13.87,12.75-25.21,13.9-39.67,1.38-17.21-6.57-29.92-10.14-46.06l-15.12,2.53c.44-14.31-.28-32.88-11.3-43.54-3.74-3.62-12.37-6.19-14.48-9.47-2.27-3.53-2.63-11.77-4.64-16.79-1.17-2.93-14.24-25.36-15.61-26-2.43-.33-3.3,4.01-4.21,5.85-2.78,5.64-4.78,11.95-7.64,17.56-.67,1.32.66,2.38-2.62,1.79-8.12-20.51-23.1-38.72-39.09-53.59-4.08-3.8-24.99-21.95-28.41-23.29-2.35-.92-1.62.86-1.91,1.82-3.31,10.86-2.86,23.67-5.63,34.72-8.22-16.87-16.07-33.69-34.69-40.95-3.94-1.54-12.06-2.48-14.56-4.35-1.83-1.37-5.02-8.54-7.48-11.43-5.47-6.43-14.17-11.58-20.2-17.63-2.68-.44-1.48.46-1.99,1.73-3.81,9.43-4.88,20.16-8.07,29.77-22.52-30.46-32.85-63.12-74.71-70.27-20.98-3.59-48.15-7.83-69.18-10.25-11.42-1.31-33.18-3.97-30.72,13.72-25.34.84-51.58-2.19-76.3,2.49l-3.97,8.64c-16.16,2.26-32.55,3.74-48.56,6.91-73.23,14.52-127.76,63.94-179.59,114.16-4.62,3.14-7.59.8-10.51-2.98,27.22-22.76,52.49-47.93,81.51-68.48,38.7-27.4,79.11-46.37,125.44-57.37,80.3-19.05,192.51-49.05,262.6,8,2.61,2.12,7.43,8.44,9.52,9.39,3.99,1.81,18.95,1.42,27.13,4.39,24.4,8.85,48.41,44.47,70.57,46.68,13.67,1.37,20.2-4.07,34.28,3.54,9.51,5.14,14.15,16.03,22.46,22.93,8.56,7.1,20.42,11.79,29.49,18.42,30.32,22.17,53.41,63.46,79.57,90.63,3.67,18.13,4.26,30.4,15.83,45.94,4.33,5.82,11.77,10.64,12.82,17.43,1.86,12.01-5.34,14.98-6.95,25.22-3.74,23.79,15.43,36.45,9.45,57.36-3.57,12.48-32,46.95-42.52,55.82-19.84,16.71-53.16,24.51-78.12,31.57-4.22,1.19-8.02.34-12.68,2.45-6.23,2.82-14.09,11.71-22.05,15.78-20.24,10.33-47.55,9.71-68.69,1.86-12.65-4.7-13.76-11.64-18.29-23.2-21.04,10.44-44.05,5.32-66.21,2.42-2.57,11.8.31,16.39,6.26,25.89,17.03,27.19,67.54,75.57,100.42,78.6,20.84,1.92,32.98-11.59,50.91-18.74l-29.63,32.77c-3.71,8.2,8.13,3.33,11.96,1.87,16.1-6.15,26.41-19.43,40.48-28.86,42.87-28.74,83.48-34,134.21-33.58,61.85.52,152.45-.02,206.46,33.08,30.43,18.65,7.52,41.26-7.95,60.25l45.97,3.85c14.68-1.03,30.61,2.07,44.75-2,8.82-2.54,16.41-9.11,25.27-10.66,8.48,61.51,65.14,28.52,65.57-16.39l7.57,1.28c-2.58,6.04-.65,12.91-1.41,19.39-1.57,13.48-19.5,35.18-32.68,39.19-21.57,6.56-28.12-7.01-44.9-14.28-19.06-8.26-69.02-10.33-87.02-.39-30.89,17.07-6.21,50.21,7.9,69.42,11.83,16.1,25.37,31.17,37.01,47.46l88.3,45.98c1.37,1.81-6.83,3.61-8.19,3.76-27.86,3.07-66.75-23.71-79.5-47.98-2.76-.21-11.07,6.65-9.18,10.47.87,5.56,19.79,32.4,19.65,34.37-.09,1.31-3.74,4.27-5.41,4.44-5.24.54-32.3-18.44-37.74-22.77-25.24-20.08-47.5-47.87-63.72-75.6-2.28.34-1.38,6.54-1.22,8.17,3.9,40.72,38.73,65.95,66.11,91.48,1.28,1.19,2.62,2.37,4.46,2.48.24,2.4-2.53,1.01-3.79.64-24.09-7.1-49.25-32.93-62.28-53.72-5.62-8.96-21.13-37.35-22.88-46.55-.54-2.84,3.8-9.99,4.36-14.63,2.25-18.85-1.96-41.25-14.37-55.96l9.45,65.55-12.93-34.33-7.25-31.21c-2.16,1.19-4.41,5.86-5.12,8.1-8.3,26.43,11.47,68.55,23.82,92.34,12.39,23.86,27.96,45.87,41.64,68.94l-3.19,3.2-3.54-1.14-51.1-75.06-6.29.71c-1.16,1.51,11.77,30.32,12.63,35.91.11.74.33,2.08-.64,1.89-11.5-11.38-20.51-23.7-18.18-40.86.49-3.63,2.81-7.07,3.37-10.49,1.61-9.84-6.3-30.12-8.15-41.67-5.87-36.59-1.65-72.31,3.4-108.68l-9.75,19.85c-11.32,31.19-14.41,64.58-17.98,97.38l-15.13-98.31-6.1.16-9.01,67.89c-3.42.47-1.95-.26-2.53-1.86-4.18-11.43-6.71-25.31-10.17-37.11-12.13-3.99-9.41,19.81-19.75,11.92l7.23-67.5-7.78,13c-7.42,18.51-6.84,39.22-8.61,58.85l-2.5-10.72c-1.76-14.45-1.26-31.27-3.8-45.37-.7-3.9-4.88-4.04-5.04-2.53-1.37,13.37-1.27,26.97-2.52,40.33-.15,1.56-.46,6.74-2.51,6.95v-73.12h-6.31c-2.03,19.43-3.74,39.33-11.11,57.59-2.4,5.94-10.86,24.09-14.24,28.62-3.26,4.37-6.91-.2-11.2-.48v-94.56c-25.55,30.24-20.94,74.96-21.45,112.2l-8.8-44.76-.02-49.78-6.25,3.51-16.45,97.34-12.68-88.16-4.95-.09v70.6l-11.32,1.24-12.52-48.41-3.9-.74v56.73l-10.71-22.69-24.58,36.56-7.69-54.08-6.25.43,2.7,66.68-3.87,2.1-17.18-50.31-4.27,1.14v30.26l-31.51-6.31-1.89,27.73-12.61-22.68-10.71,32.77c-3.14-17.21-2.17-37.17,11.3-49.82,5.2-4.88,12.11-7.42,17.56-11.43,6.87-5.06,11.79-11.35,18.85-15.81,1.23-2.14-1.47-6.17-4.01-5.94-14,6.74-27.35,14.85-41.18,21.88-81.91,41.69-170.66,73-256.69,105.15-40.67,10.09-82.62,13.46-124.08,19.02l99.59,30.23c-42.17,1.4-81.78-8.07-118.53-28.33-22.83-12.59-56.22-37.46-80.39-44.42-9.68-2.79-18.98-.43-28.55-2.72-2.73.69-1.74,11.51-12.37,10.89-5.7-.33-16.11-6.78-22.64-8.91-2.76-.9-6.78-.42-8.59-1.5-.77-.46-5.76-9.63-7.22-11.66-.63-.87.25-2.15-2.2-1.58l-10.74,13.3-26.46-5.74c-.79,5.8.5,10.56-6.3,11.35-2.41-6.77-16.82-55.52-19.56-56.74-.47-.21-3.17-.46-3.16.63l2.56,49.14c-.32,3.6-3.28,3.38-6.33,3.18l-7.58-55.48-4.84,1.47,3.58,60.31c-10.25.9-18.68-8.76-22.1-17.6-2.32-6-5.37-29.64-10.25-31.35-1.64-.57-3.72-.13-5.46-.21l2.51,65.56c-6.83-7.8-16.39-15.52-21.66-24.34-6.88-11.52-8.34-24.84-11.83-37.51l-6.85.72,6.2,49.65-3.03,1.37-13.86-46.62c-16.86,12.86-5.86,36.18-8.21,54.2l-15.06-43.54-7.64.07,6.31,52.3c-3.63-2.32-14.68-18.11-17.27-18.73-1.3-.31-5.26.61-5.51,1.89l3.87,24.4c-5.15-3.85-16.98-21.73-23.29-20.17-2.85.71-.65,2.99-.65,3.15v25.85l-6.8-8.95c-3.92-8.38-2.54-37.93.43-47.22,2.51-7.83,6.07-9.88,12.65-13.82,28.2-16.91,68.62-34.57,99.17-48.34,30.44-13.72,44.32-22.87,78.94-11.22,34.39,11.57,49.26,43.7,73.88,67.17,26.18-11.9,50.71,9.76,76.31,6.77,5.7-.67,10.29-3.61,16.51-3.74,8.02-.17,16.06,3.22,23.99,3.85,23.1,1.84,33.3-5.55,52.29-16.39l-.77-2.58c-6.36-4.47-11.33-1.19-17.45-1.12-71.19.81-98.88-32.84-157.83-57.87-63.95-27.15-168.46-.15-231.13,24.44-121.89,47.84-260.1,119.46-393.96,120.42-8.48.06-16.81-.99-25.3-1.31-1.53-.06-4.68.94-4.39-1.25,30.69-3.98,61.79-6.14,92.26-11.76,58.59-10.79,127.05-33.37,183.23-53.79,123.13-44.77,253-122.88,388.91-83.86,25.4,7.29,41.9,18.62,62.42,34.64,1.93-.11,4.49-12.25,5.54-14.6.67-1.48-.59-2.28,2.62-1.75l18.44,28.89c1.58.38,6.21-2.75,6.52-4.45,1.07-5.78-4.6-20.03-2.88-26.97l24.61,41.59c2.65-.13,5.98-1.51,6.31-4.39.74-6.51-6.27-23.06-5.69-30.91,10.97,3.18,12.31,29.48,20.71,32.24,7.08,2.32,26.49-2.22,32.24-7,7.6-6.32,3.03-11.17,1.89-18.92l26.46,26.48v-30.26c14.3,11.43,4.48,41.17,32.79,32.77l-7.56-40.33c14.77,8.81,34.3,39.48,52.99,20.85,12.88-12.84,7.36-17.21,6.27-31.6-.1-1.36-.78-3.45,1.23-3.11l39.51,52.78,7.19-5.42-25.36-57.92,3.48-1.87,23.18,41.4,7.54-3.33c1.05-6.13-7.52-38.46-4.35-40.88.83-.63,3.18-1.32,4.29-.63l25.22,58.72,8.91-17.56c2.58-1.83,14.16,7.69,17.54,8.74,1.22-3.24.42-22.8,3.16-22.67l17.01,20.15-3.63-45.26,8.54-1.24c4.6,12.27,13.91,19.83,24.74,26.33,3.86-8.91,1.58-19.62.63-28.98,2.41-.59,2.43.88,3.55,2.11,5.96,6.55,11.29,15.82,16.84,22.92l9.34-2.28c-1.59-9.71-1.84-19.81-3.42-29.52-.67-4.12-2.68-16.85-4.3-19.65-2.72-4.7-16.9-7.16-21.67-10.49l-7.88-23.07c.16-4.86,22.74-12.85,20.89-20.73l-34.79-44.1c-2-.34-1.35,1.76-1.24,3.12.61,7.3,1.6,14.81,2.51,22.08-1.2,1.19-25.06-7.05-28.16-9.02-12.37-7.86-15.17-30.46-17.24-43.92-2.51.52-2.14,2.59-2.49,4.43-1.84,9.52-2.65,19.95-3.8,29.61-.95,1.02-20.04-7.31-20.1-10.6l5.07-41.62-8.23-2.03c-4.37,15.56-4.94,32.37-8.9,47.98-.58,2.28.22,4.47-3.13,3.74v-54.21h-6.29s-10.14,51.64-10.14,51.64l-29.37-3.94-1.94-1.85,2.99-57.19c-14.93,13.67-14.2,36.07-14.52,54.82l-2.49,10.72-22.09-42.85-5.67,31.51c-1.09,1.29-4.88-2.8-5.69-3.75-12.48-14.46,4.11-48.3,3.82-65.58-18.57,14.94-22.66,40.49-24.6,63.03-2.2.29-1.18-2.86-1.25-4.39-.62-14.99,1.02-28.73,2.51-43.51l-4.33-.06-15.78,60.04-6.16-2.81-1.41-38.67-3.22-2.07-9.51,36.48-6.25.05,17.59-86.54c.78-4.6-3.73-4.06-6.94-5.21l-25.8,101.83c-1.95-.23-2.72-4.66-3.15-6.28-8.49-32.1,6.6-57.67,19.56-85.73l-7.45-1.19-8.96,22.6c-3.52-2.93-6.5-12.1-11.14-6.74l-9.02,72.31c-6.86-6.52-11.8-19.32-13.53-28.69-3.66-19.84,2.99-36.74,7.24-55.77l-8.9.55-17.66,76.27-4.96.08v-74.38l-4.76,2.17c-3.44,7.64-13.8,56.62-17,59.28-.79.66-3.41.7-4.7,1.58-1.44-6.78-9.34-55.34-12.01-56.72-2.48-1.28-1.93,2.71-2.23,4.02-2.69,11.6-4.76,23.4-7.22,35.04l-3.8-22.03-1.86-3.16-30.89,23.93v-34.67c0-1.21,3.91-8.52,5.05-10.08,7.18-9.82,16.17-7.23,16.42-24.03.11-7.48-5.43-12.06-8.21-18.24-9.69-21.46-6.86-39.86-5.63-62.33.08-1.46.88-6.99-1.3-6.98-20.94,48-12.43,103.02-24.59,152.55-1.56,6.37-1.44,13.44-9.47,11.34l13.73-130.39c-.63-2.65-5.81-2.27-7.88-1.82-2.72.95-13.82,36.22-15.29,41.44-9.16,32.58-12.35,64.19-1.9,97.07h-8.83s-5.03-54.21-5.03-54.21h-7.58s2.6,67.5,2.6,67.5l-7.62.58-5.07-63.01-8.81-1.28-8.17,46.7c-1.75,3.3-7.16-5.04-10.72-3.26-13.01,14.28-33.89,23.04-29.04,46.08l-3.78-35.29c-1.22-1.4-7.84,5.73-8.85,6.9-16.73,19.3-8.34,44.54-7.55,67.47l-13.71-53.47-8.97.52v51.69l-4.96-.08-8.92-36.48c-1.52-1.14-7.79,6.98-8.61,8.39-.98,1.69-3.98,8.54-3.98,9.88v51.06l-8.84-49.16-10.08-.02-5.04,52.32-3.78,3.16v-69.34c-2.47-.01-4.83-.62-6.95,1.24-2.35,2.07-8.52,20.09-9.77,24.27-3.5,11.69-6.02,24.75-7.22,36.91-.54,5.49,1.73,12.56-1.91,17l-6.99-39.01-10.03-.07-7.57,51.7c-2.41-.44-2.09-2.62-2.57-4.35-3.67-13.16-4.39-28.94-8.08-42.35-1.36-1.92-8.95-1.89-10.22-.03l-9.37,70.07-2.52-1.27v-61.15c-2.2-.55-2.52.91-3.79,1.88-18.96,14.53-18.92,39.61-22,61.21l-3.2,10.04v-54.21l-6.85-1.12-18.38,70.45-1.3-10.76c2.55-14.15.76-29.7,2.71-43.94,4.16-30.29,38.51-40.32,61.23-53.5,73.62-42.72,130.72-104.93,184.45-169.82,5.18-6.25,10.26-12.59,14.55-19.52l5.59,4.42c-20.19,24.07-37.66,50.21-54.14,76.92l7.14,4.24,2.36-.99c23.69-32.91,49.49-64.45,72.21-98.05,21.62-31.96,39.33-67.29,65.14-96.23,22.05-24.73,48.02-52.03,84.48-46.64l98.52-35.23c4.15-1.32,4.25,4.03,4.18,7.44l-24.36,8.77-.74,5.1c20.81,4.83,42.68,5.91,63.26,11.77,44.86,12.76,95.62,58.66,68.02,108.91-8.17,14.88-18.72,19.02-29.24,30.02-3.33,3.48-8.23,13.15-12.59,12.78-13.35-1.12-32.84-19.94-40.58-1.66-4.24,10.01-8.46,28.28.86,36.2,6.42,5.45,15.43,4.22,19.51,6.97,4.21,2.84,4.5,13.49,16.12,16.66,7.16,1.96,12.31.4,18.62.31,32.73-.48,58.74-2.56,85.68-22.74,6.77-5.07,11.73-13.99,22.1-13.82l-49.17,54.19c23.45,3.55,47.56,19.11,67.43-2.15,33.05,21.42,69.34,16.96,104.02,2.17-3.62,26.18-30.97,30.48-52.95,31.52v3.77c13.51,2.47,27.42-1.19,39.51,6.52,3.07,1.96,4.72,4.82,8.34,6.79,16.81,9.15,28.1-3.84,42.27-9.55,17.2-6.94,36.42-6.43,49.09-22.77,5.67-7.31,8.34-16.93,14.6-23.84,1.49,17.96-8.8,33.25-22.08,44.1-9.74,7.96-26.16,13.19-23.82,29.16,19.18,5.81,53.25,11.85,69.76-2.13l45.48-50.96v34.04ZM1291.33,503.98l-3.79-18.28,47.89-138.05c-3.01,1.72-5.78,3.78-8.21,6.27-27.58,28.2-55.49,110.3-56.12,149.38-.07,3.99.45,14.01,1.51,17.5.42,1.38,1.33,2.18,2.83,2.04l86.49-9.42c-3.89-16.03-22.96-6.63-25.25-25.16-3.02-24.49,17.61-61.52,21.46-86.38-7.59-3.04-12.96,5.81-16.64,11.72-15.87,25.55-15.34,58.83-18.67,87.86-6.82-2.1-13.56-12.79-13.61-19.52-.06-8.08,10.02-28.83,12.99-38.47,5.15-16.71,8.27-34.34,13.18-51.15.65-3.11-5.23-1.69-7-2.99l-37.05,114.65ZM1366.95,491.38l45.39-129.86c-3.06,2.25-6.38,5.3-8.79,8.22-18.7,22.68-42.37,88.32-39.16,117.27.21,1.89.26,3.89,2.55,4.37ZM1494.08,371.82l-7.35-2.19-35.29,52.41c8.18-.69,15.28-5.61,20.81-11.32,2.28-2.35,20.43-25.24,21.1-26.81,1.55-3.65,1.15-8.22.74-12.08ZM1384.6,500.2l55.47-129.85c-19.69,15.75-33.48,40.27-43.08,63.45-6.86,16.58-14.64,40.34-15.01,58.21-.03,1.62.47,7.67,2.61,8.19ZM1505.64,441.58c1.05-7.44-.77-16.89,0-24.58l-21.43,41.59c11.13,1.9,19.93-6.33,21.43-17.01ZM1429.96,495.14l17.68-69.32c-21.63,14.34-18.98,44.45-24.05,67.27l6.37,2.05ZM1769.14,752.35l-52.4-46.65c-1.55-2.11,2.95-6.28,4.9-6.11l24.19,18.5,4.34-4.18-60.44-64.93c6.36,16.07,4.1,35.4,11.49,50.9,4.49,9.43,30.63,34.66,39.79,40.9,8.44,5.74,17.96,10.16,28.13,11.57ZM2108.29,761.18c5.04-1.86,10.41-5.93,12.27-11.04,5.25-14.41,3.77-35.25,7.64-50.41.01-3.57-4.55-3.13-7.2-2.72l-12.71,64.17ZM2207.88,804.68c-.95-8.93.7-19.27,0-28.37-1.97,1.11-2.82,6.3-3.43,8.55-15.2,56.85,25.06,103.13,66.45,135.82,7.39,5.84,9.08,6.99,18.94,3.75-22.01-25.62-49.68-47.37-66.59-77.14-6.25-11-14.05-30.14-15.37-42.62Z"/>
  <path d="M1006.39,417l31.14-9.85c6.29,3.43,11.45,8.98,18.4,11.38,17.33,5.97,38.3-.81,56.36,1-3.33,11.25-22.76,16.44-23.55,29.8-.51,8.7,12.36,20.97,19.11,25.7,1.07.75,1.32,1.72,3.16,1.22l91.45-129.84c2.46-2.98,5.8.42,8.21,1.91-16.13,27.98-35.35,54.41-54.48,80.42-44.3,60.21-92.23,122.01-154.22,164.75-2.05-1.26.42-2.79,1.26-3.79,12.32-14.7,38.93-33.67,43.9-50.65,3.72-12.69-.72-35.85,7.86-45.09,6.57-7.08,21.55.47,29.1,1.11,9.05.76,8.42-6.8,14.09-11.88l-30.04-46.03-11.31,15.13c-2.3-5.3-3.65-12.1-6.2-17.12-.67-1.32.65-2.38-2.61-1.78l-18.92,28.99,5.02-40.34-33.4,37.82c-.36-7.66,8.4-19.87,8.92-26.38.16-1.99-1.39-2.84-2.78-3.79l-36.41,31.44,6.93-25.21-23.94,18.9,1.87-20.18c-14.34,7.42-17.79,32.84-37.89,26.56-2.49-.78-10.9-5.34-10.47-8.03.73-4.59,20.62-23.3,22.06-28.57.77-2.82-2.27-5.6-5.03-6.24l-45.62,44.06-19.48-3.82c-.04-5.35,15.88-26.37,13.87-28.99-.12-.15-3.15-.92-3.8-.64l-61.31,58.43c-2.01-.08-5.6-1.6-5.36-4,.47-4.81,19.03-26.39,19.89-32.02.46-3.06-2.42-5.31-4.87-6.64-23.96,40.65-62.36,73.07-102.25,97.6-29.89,18.39-70.18,42.78-101.56,57.29-28.07,12.98-60.54,21.83-91.24,13.42,14.31-2.45,28.77-2.6,42.48-7.97,33.04-12.95,75.9-35.45,107.59-52.52,42.16-22.71,78.04-46.91,110.95-81.94,60.5-64.4,103.14-157.47,210.78-127.64,33.9,9.39,61.72,31.34,92.68,42.22,16.28,5.73,35.89,4.48,52.03,12.91,1.44,3.68-5.97,8.45-5.89,10.7.09,2.87,5.94,5.12-5.45,6.92,12.33-18.64-15.8-14.79-26.95-16.53-21.56-3.36-43.21-17.61-62.97-26.54-39.7-17.94-94.05-38.46-135.34-15.12-15.19,8.58-31.35,23.07-38.23,39.29,15.55-6.92,43.06-25.14,60.28-20.56,14.54,3.87,17.28,27.55,33.41,35.92,19.9,10.33,32.42-5.36,48.77-14.1v18.91Z"/>
  <path d="M2407.08,723.35l-30.86-25.23-1.3-28.96c-13.91-7.01-24.14-18.66-36.79-27.51-20.91-14.64-43.12-23.26-69.16-21.72-19.49,1.15-34.76,13.76-54.73,11.33l-1.23-11.19,59.15-11.45c-.35-1.68-3.96-3.23-5.46-3.97-33.62-16.58-94.87-9.72-130.93-1.93-27.17,5.87-55.11,14.94-78.56,29.86l4.42-26.46c-56.5,1.4-102.52,28.75-148.64,57.48-1.07.67-2.73,3.16-3.9,1.14,24.46-20.76,51.56-39.03,81.63-50.75,51.35-20.03,103.28-17.56,157.27-20.5,27.84-1.51,60.89-7.24,88.25-5.01,24.67,2.01,53.7,21.78,76.7,31.72,22.78,9.85,37.36,8.06,52.83,30.38,2.84,4.1,8.39,16.52,10.46,18.54,2.73,2.66,10.43,3.12,13.07,7.11l17.79,47.13Z"/>
  <path d="M1813.28,317.4c2.91,2.17,26.41-23.77,28.97-21.43,2.2,8.11,4.05,18.33,7.53,25.88.58,1.25.73,2.96,2.55,3.11l6.94-25.21c9.09,10.6,18.11,40.66,28.99,47.91,9.18,6.12,27.23-2.47,32.81,2.49,1.37,1.22,15.95,30.61,16.48,32.8,1.02,4.15-1.12,4.93-3.89,7.49-13.35-15.46-47.57-6.02-57.62-24.25-2.75-4.99-3.05-16.79-5.61-18.34-19.8-5.22-40.49-7.95-59.96-14.43-7.14-2.38-23.55-8.04-26.55-15.13-3.66-8.66,13.34-21.4,17.36-28.61l11.99,27.71Z"/>
  <path d="M1579.4,224.1c5.68.67,13.18,3.93,17.62,7.6l22.1,26.44v-32.78l11.96,16.09,15.76-7.27,10.74,28.99,15.74-17.64,3.82,23.95,4.79-2.12,7.78-24.34c7.9,25.29.05,39.81-26.9,41.69l-6.16-21.23c-15.58-4.88-30.16-2.96-45.07,2.88-10.66,4.18-19.25,11.33-29,16.39-20.54,10.67-42.91,12.52-65.58,14.46l74.36-44.74-34.02-28.37c7.04.59,15.19-.81,22.06,0Z"/>
  <path d="M857.61,689.33c-6.16,34.25-37.2,42.37-63.48,55.65-36.98,18.68-71.12,38.32-114.22,40.14l-2.58-7.52c26.41-9.4,56.11-16.63,81.17-29.16,19.46-9.73,39.07-25.95,58.4-37.42,13.12-7.78,26.86-15.27,40.72-21.68Z"/>
  <path d="M876.53,648.99c-23.15,19.67-49.72,35.51-76.06,50.63-48.03,27.58-99.87,54.33-153.4,69.11l229.46-119.75Z"/>
  <path d="M1015.21,503.99l-51.08,59.25-3.1-1.88,14.92-33.78-2.97-3.26-17.66,12.44-.64-1.89,16.6-36.99c14.99-.75,32.65-6.96,45.63,3.78,11.46,9.49,3.43,30.73,4.62,43.93h-6.31v-41.61Z"/>
  <path d="M910.57,507.78c-3.72,21.63-25.63,40.96-42.29,54.15-1.54,1.22-12.31,9.77-13.18,8.87l18.99-35.84c0-.46-4.16-2.95-5.11-2.63-3.39,1.13-16.71,14.51-18.3,14.49-20.47-36.78,37.6-36.35,59.89-39.05Z"/>
  <path d="M1643.06,234.46l-116.39-8.77-2.12-5.08c14.91-3.53,30.18-2.74,45.39-2.54l-16.38-11.32c24.17,4.29,50.41.14,72.7,12.39,1.83,1,19.5,13.05,16.8,15.33Z"/>
  <path d="M874.01,719.59l-20.19,71.85c-2.52-.48-2.07-2.66-2.51-4.41-2.94-11.69-3.82-24.31-7.02-35.98l-8.06.11-11.38,39.02c-5.51-21.6-4.51-33.97,12.58-48.54,3.7-3.15,34.5-23.72,36.58-22.04Z"/>
  <path d="M1204.31,684.27l-17.84-33.81-4.83-.21,3.44,39.76c-.91,2.04-3.04,2.56-4.77,1.27-1.69-1.27-8.61-37.87-8.35-41.51,1.1-15.1,29.13-20.81,39.91-27.27l-7.57,61.77Z"/>
  <path d="M718.93,860.8l-50.35,13.5c-57.25,13.16-116.64,17.43-176.2,15.47l226.55-28.97Z"/>
  <path d="M336.14,883.58l-51.66,7c-58.45,5.8-117.91,2.5-176.74-6.99l228.39-.02Z"/>
  <path d="M988.74,603.6c-36.28,36.44-75.29,72-127.33,83.18l127.33-83.18Z"/>
  <path d="M761.8,664.12c-42.05,30.37-90.2,55.28-142.46,61.75l142.46-61.75Z"/>
  <path d="M687.41,575.86c.54,2.37-1.34,2.99-2.51,4.41-20.68,24.92-63.61,45.61-94.56,54.21-18,5-37.02,8.55-55.46,4.4l31.3-4.61c24-5.14,46.33-15.31,67.88-26.68l53.36-31.73Z"/>
  <path d="M686.15,814.15l-49.15,13.24c-31.52,7.41-63.84,11.69-95.83,4.38l144.97-17.62Z"/>
  <path d="M764.32,686.81c-40.34,27.53-82.67,56.27-132.37,63.01l132.37-63.01Z"/>
  <path d="M672.28,849.45l-50.09,9.22c-59.6,7.8-120.52,7.8-180.36.84l230.45-10.06Z"/>
  <path d="M672.28,903.47l-72.13,9.22c-85.83,7.8-173.55,7.8-259.71.84l331.85-10.06Z"/>
  <path d="M950.79,492.75c1.25,5.22,4.42,9.8,3.66,15.31-.48,3.48-14.47,30.46-16.82,32.51-1.96,1.71-3.58.9-5.54-.6l12.59-27.7-5.68-3.23-26.56,40.31-2.94-3.31,24.42-47.05c1.64-3.28,14.91-7.63,16.85-6.25Z"/>
  <path d="M686.16,607.39c-33.42,29.12-78.02,41.95-121.03,49.14l121.03-49.14Z"/>
  <path d="M502.38,667.43c-40.87,17.17-87.24,15.37-130.33,8.71l130.33-8.71Z"/>
  <path d="M1764.1,265.71v44.13c-20.07-8.14-48.98-14.9-25.23-40.34.88.65,5.99,17.82,8.19,20.18,7.28,7.79,9.22-20.41,11.36-24.03l5.68.06Z"/>
  <path d="M2124.67,857l41.62,93.91c-.71,1.41-3.34-1.93-3.83-2.48-13.33-14.85-37.79-50.61-37.79-70.63v-20.8Z"/>
  <path d="M774.41,525.41l23.54-19.98c1.34-.12,17.84,14.38,18.1,16.89s-2.77,7.44-4.58,9.28c-11.43,11.58-24.94-5.91-37.06-6.19Z"/>
  <path d="M1603.98,703.19l-10,1.16c-1.45-9.69-10.12-27.05-6.67-36.12,2.32-6.08,11.81-13.48,16.66-18v52.95Z"/>
  <path d="M605.47,700.67l93.91-26.5-7.02,5.59c-12.65,8.04-42.66,20.91-57.26,20.91h-29.63Z"/>
  <path d="M720.2,625.04l-10.73,12.58c-2.98,1.15-2.48-7.41-7.3-7.32l-61.39,17.4,55.07-31.35c3.95-.37,5.32,11.22,8.81,12.33l15.54-3.64Z"/>
  <path d="M1711.16,284.62l6.28-22.69-17.63,5.04c3.88-15.19,4.91-28.69,1.27-44.12,18.77,12.41,29.04,44.99,10.09,61.78Z"/>
  <path d="M843.75,870.88c-16.56,14.38-38.73,27.75-60.47,32.18-8.42,1.71-16.84,1.64-25.25,3.1-.64-3.36.73-2.19,2.53-3.08,20.2-9.97,48.72-20.19,70.28-28.12,4.14-1.52,8.59-3.52,12.92-4.08Z"/>
  <path d="M2101.98,907.42l-8.79,1.24-18.96-64.88c3.03-.62,7.2-3.43,8.61.2l19.14,63.44Z"/>
  <path d="M891.65,872.11l-66.19,38.96c-2.08-1.07-5.62-6.73-4.31-8.57l67.38-36.64,3.13,6.26Z"/>
  <path d="M1258.54,588.46v52.32c0,.61-2.2,2.77-3.16.64l-5.68-18.92c-3.25-.35-2.01,0-2.55,1.84-1.3,4.42-1.79,9.88-2.56,14.48l-4.98-.57,11.48-49.66,7.45-.12Z"/>
  <path d="M620.59,793.98l-32.77,9.45c-17.54,4.03-38.41,6.38-54.21-3.79l86.98-5.65Z"/>
  <path d="M1718.7,844.39c-8.6-4.2-12.77-15.75-23.89-11.91-3.14,1.09-11.42,11.18-13.9,9.39-9.76-20.75,16.82-21.23,30.71-21.27l7.08,23.79Z"/>
  <path d="M1232.07,604.84l4.89,63.58c-.63,2.6-5.32,2.06-7.41,1.99l-6.32-65.56h8.84Z"/>
  <path d="M1745.19,835.57l-5.04-20.83-13.28,5.56-4.42-6.76,21.02-16.86c4.14.71,6.26,2.56,6.82,6.68.65,4.8.75,24.56-.06,29.06-.56,3.12-2.02,3.5-5.04,3.16Z"/>
  <path d="M943.19,858.44l2.69,4.84c-20.64,12.86-39.69,28.09-59.91,41.56l-4.39-5.61,61.61-40.79Z"/>
  <path d="M1752.75,343.88l2.44,14.59,22.78-.7c-9.46,18.84-27.82,9.72-44.13,10.06,4.97-7.25,10.33-15.71,16.02-22.34.78-.91-.05-2.38,2.89-1.6Z"/>
  <polygon points="1277.45 618.71 1281.23 680.49 1273.66 680.5 1269.88 618.71 1277.45 618.71"/>
  <polygon points="2057.75 835.66 2072.48 892.35 2067.29 894.81 2050.4 836.95 2057.75 835.66"/>
  <path d="M2110.76,886.01l36.45,67.46c-2.72,3.2-5.13,3.95-7.2-.24l-34.25-65.96,5-1.26Z"/>
  <path d="M1632.99,710.75l-8.79,1.23-8.82-39.84c-.65-6.12,6.21-3.26,10.03-5.52l7.59,44.13Z"/>
  <path d="M1447.65,941.48c.65.77-.21,4.61-1.85,4.83l-69.97-17.5c-.24-2.29-.76-7.56,2.85-7.33l68.97,20Z"/>
  <polygon points="1307.7 633.84 1311.49 677.98 1303.47 677.8 1301.4 674.82 1298.89 635.12 1307.7 633.84"/>
  <path d="M584.71,775.07l-43.44,6.14c-20.53,1.11-46.59-.69-60.63-9.92l104.08,3.78Z"/>
  <polygon points="745.4 908.7 695.03 931.36 692.46 923.84 745.4 908.7"/>
  <path d="M531.08,749.84l.19-5.48,2.95-2.13c13.94,2.87,28.97,2.54,42.87,5.13,2.07.39,2.16-.83,1.9,2.48h-47.91Z"/>
  <path d="M475.49,822.03l-51.27,9.41c-58.12,8.52-117.66,8.02-176.87,1.29l228.14-10.7Z"/>
</svg>